<svg id="Layer_1" data-name="Layer 1" xmlns="http://www.w3.org/2000/svg" width="391.18" height="263.49" viewBox="0 0 391.18 263.49"><defs><style>.cls-1{fill:#272525;}.cls-2{fill:#b6549b;}.cls-3{fill:#d26835;}.cls-4{fill:#bc422a;}.cls-5{fill:#8ac7ed;}.cls-6{fill:#fff;}.cls-7{fill:#e5e6e7;}.cls-8{fill:#93377d;}.cls-9{fill:#babcbe;}.cls-10{fill:#f0f1f1;}.cls-11{fill:#cfd0d2;}.cls-12{fill:#0782c7;}.cls-13{fill:#646872;}.cls-14{fill:#e8ba45;}.cls-15{fill:none;}.cls-16{fill:#e7b643;}.cls-17{fill:#9fa3ac;}.cls-18{fill:#8a8f99;}.cls-19{fill:#c3c3c2;}.cls-20{fill:#92c160;}.cls-21{fill:#749a45;}.cls-22{fill:#5c5f67;}.cls-23{fill:#818793;}.cls-24{fill:#727781;}.cls-25{fill:#bdbcbc;}.cls-26{font-size:22.98px;fill:#0588d8;font-family:TimesNewRomanPSMT, Times New Roman;}.cls-27{letter-spacing:-0.06em;}.cls-28{letter-spacing:-0.04em;}</style></defs><path class="cls-1" d="M109,39.59c-1,0-2.43-.7-3.58-4a28.46,28.46,0,0,1-1.29-9,28.57,28.57,0,0,1,1.29-9c1.15-3.31,2.58-4,3.58-4s2.42.7,3.57,4a28.27,28.27,0,0,1,1.3,9,28.16,28.16,0,0,1-1.3,9C111.41,38.89,110,39.59,109,39.59Zm0-24.84c-1.77,0-3.75,4.87-3.75,11.86s2,11.86,3.75,11.86,3.75-4.87,3.75-11.86S110.76,14.75,109,14.75Z"/><path class="cls-1" d="M116.76,33.37c-.27,0-.56,0-.86,0a28.27,28.27,0,0,1-8.78-2.25,28.28,28.28,0,0,1-7.78-4.63c-2.63-2.33-2.72-3.92-2.34-4.84s1.58-2,5.08-1.76a31.75,31.75,0,0,1,16.56,6.87c2.62,2.34,2.72,3.92,2.34,4.84S119.6,33.37,116.76,33.37ZM101.23,21c-1.74,0-2.9.39-3.19,1.1-.68,1.64,3.06,5.33,9.51,8s11.71,2.72,12.39,1.08-3.06-5.32-9.52-8A25.44,25.44,0,0,0,101.23,21Z"/><path class="cls-1" d="M100.85,34.42c-1.88,0-2.73-.67-3.1-1.32-.5-.86-.61-2.45,1.69-5.11a28.47,28.47,0,0,1,7.11-5.6h0A28.5,28.5,0,0,1,115,19c3.45-.66,4.77.23,5.27,1.09s.61,2.45-1.69,5.1a27.91,27.91,0,0,1-7.12,5.6A28.34,28.34,0,0,1,103,34.19,11.61,11.61,0,0,1,100.85,34.42Zm16.27-14.5c-2.25,0-5.94,1.09-10,3.44h0c-6,3.5-9.28,7.64-8.39,9.18s6.09.81,12.14-2.69,9.28-7.64,8.4-9.17C119,20.18,118.21,19.92,117.12,19.92Z"/><circle class="cls-2" cx="108.99" cy="26.61" r="2.15" transform="translate(58.05 126.57) rotate(-76.72)"/><path class="cls-3" d="M122,25.3a1.33,1.33,0,1,1,1.33,1.33A1.32,1.32,0,0,1,122,25.3Z"/><path class="cls-4" d="M103.82,20.85a1.33,1.33,0,1,1,1.33,1.33A1.32,1.32,0,0,1,103.82,20.85Z"/><path class="cls-5" d="M96.18,27.63a.73.73,0,1,1,.72.72A.73.73,0,0,1,96.18,27.63Z"/><path class="cls-6" d="M39.77,39.09V29.83c1.61-.38,2.65-1,2.65-1.68,0-1.17-3-2.11-6.63-2.11s-6.62.94-6.62,2.11c0,.69,1,1.3,2.64,1.68v9.26a15.22,15.22,0,1,0,8,0Z"/><path class="cls-7" d="M39.77,39.09V29.83c1.61-.38,2.65-1,2.65-1.68,0-1.16-3-2.11-6.61-2.11V69a15.23,15.23,0,0,0,4-29.92Z"/><path class="cls-6" d="M48.52,52.25a.45.45,0,0,1-.44-.37,12.25,12.25,0,0,0-1-3L47,48.66a1.42,1.42,0,0,0-.08-.18,15.69,15.69,0,0,0-2.45-3.4.49.49,0,0,1-.12-.15L44,44.61a12.74,12.74,0,0,0-1.41-1.25.34.34,0,0,1-.12-.12,3.1,3.1,0,0,1-.46-.35l-.29-.19-.18-.11a.46.46,0,0,1-.13-.63.45.45,0,0,1,.62-.12l.16.1a3.52,3.52,0,0,1,.38.25l0,0a3,3,0,0,0,.43.31.61.61,0,0,1,.14.14A14.08,14.08,0,0,1,44.6,44l.32.31a1,1,0,0,1,.13.16l0,0A16.93,16.93,0,0,1,47.65,48l.12.24.08.18,0,0A12.81,12.81,0,0,1,49,51.72a.44.44,0,0,1-.35.52Zm-6-9Zm.56-.66,0,0Z"/><path class="cls-2" d="M22.33,53.67a13.47,13.47,0,0,0,26.93,0Z"/><path class="cls-8" d="M35.81,53.67V67A13.62,13.62,0,0,0,49.43,53.67Z"/><path class="cls-6" d="M47,53.57a.45.45,0,0,1-.44-.36,12.38,12.38,0,0,0-1-3c0-.07-.07-.15-.11-.23a.89.89,0,0,0-.08-.17,15.73,15.73,0,0,0-2.46-3.4l-.11-.15-.33-.33A13.81,13.81,0,0,0,41,44.68a.46.46,0,0,1-.12-.12,4.52,4.52,0,0,1-.46-.34,2.83,2.83,0,0,0-.28-.2L40,43.91a.44.44,0,0,1-.13-.62.45.45,0,0,1,.62-.13l.16.1c.12.08.24.15.38.26l0,0a2.4,2.4,0,0,0,.43.32.92.92,0,0,1,.14.14A15.11,15.11,0,0,1,43,45.29l.32.32a.53.53,0,0,1,.13.16l0,0a16.68,16.68,0,0,1,2.58,3.58l.12.24c0,.06,0,.12.08.17l0,0A13.3,13.3,0,0,1,47.4,53a.45.45,0,0,1-.36.53Zm-6-9ZM41.5,44l0,0Z"/><circle class="cls-6" cx="47.25" cy="54.82" r="0.51"/><circle class="cls-6" cx="48.88" cy="53.78" r="0.51"/><path class="cls-8" d="M31.43,52.77a1.13,1.13,0,1,1-1.13-1.13A1.13,1.13,0,0,1,31.43,52.77Z"/><path class="cls-8" d="M38.31,50.12a1.25,1.25,0,1,1-1.77,0A1.27,1.27,0,0,1,38.31,50.12Z"/><circle class="cls-2" cx="39.25" cy="55.89" r="1.25"/><circle class="cls-8" cx="33.7" cy="49.51" r="0.81"/><path class="cls-1" d="M35.79,69.57a15.78,15.78,0,0,1-4.54-30.9v-8.4c-1.73-.49-2.64-1.22-2.64-2.12,0-1.29,2.25-2.67,7.18-2.67S43,26.86,43,28.15c0,.9-.91,1.63-2.64,2.12v8.4a15.78,15.78,0,0,1-4.55,30.9Zm0-43c-4,0-6.06,1.09-6.06,1.55,0,.2.54.74,2.21,1.14l.43.1V39.52l-.41.12a14.66,14.66,0,1,0,7.67,0l-.42-.12V29.39l.43-.1c1.68-.4,2.22-.94,2.22-1.14C41.86,27.69,39.79,26.6,35.79,26.6Z"/><path class="cls-7" d="M346.9,127.43H328.34a1.53,1.53,0,0,1-1.52-1.53h0a1.52,1.52,0,0,1,1.52-1.52H346.9a1.52,1.52,0,0,1,1.52,1.52h0A1.53,1.53,0,0,1,346.9,127.43Z"/><path class="cls-9" d="M346.9,124.38h-9.27v3.05h9.27a1.53,1.53,0,0,0,1.52-1.53h0A1.52,1.52,0,0,0,346.9,124.38Z"/><path class="cls-6" d="M335,81.32h-4.7a.59.59,0,0,0-.31,1.09L333,84.3a.59.59,0,0,1,.28.51V122a2.38,2.38,0,0,0,2.38,2.38h4.05a2.37,2.37,0,0,0,2.38-2.38V82.72a1.4,1.4,0,0,0-1.4-1.4Z"/><path class="cls-7" d="M340.62,81.32h-3v43.06h2a2.48,2.48,0,0,0,2.57-2.38V82.72A1.46,1.46,0,0,0,340.62,81.32Z"/><path class="cls-1" d="M339.75,125.06H335.7a3.06,3.06,0,0,1-3.05-3.06V84.85l-3-1.87a1.26,1.26,0,0,1,.66-2.33h10.44a2.08,2.08,0,0,1,2.08,2.07V122A3.07,3.07,0,0,1,339.75,125.06ZM330.58,82l2.82,1.74a1.25,1.25,0,0,1,.59,1.08V122a1.72,1.72,0,0,0,1.71,1.71h4.05a1.72,1.72,0,0,0,1.71-1.71V82.72a.73.73,0,0,0-.73-.73Z"/><path class="cls-1" d="M339.75,125.06H335.7a3.06,3.06,0,0,1-3.05-3.06V84.85l-3-1.87a1.26,1.26,0,0,1,.66-2.33h10.44a2.08,2.08,0,0,1,2.08,2.07V122A3.07,3.07,0,0,1,339.75,125.06ZM330.58,82l2.82,1.74a1.25,1.25,0,0,1,.59,1.08V122a1.72,1.72,0,0,0,1.71,1.71h4.05a1.72,1.72,0,0,0,1.71-1.71V82.72a.73.73,0,0,0-.73-.73Z"/><path class="cls-1" d="M338.05,94.22h-4.73a.68.68,0,0,1,0-1.35h4.73a.68.68,0,0,1,0,1.35Z"/><path class="cls-1" d="M336.9,98.48h-3.58a.68.68,0,0,1,0-1.35h3.58a.68.68,0,0,1,0,1.35Z"/><path class="cls-1" d="M338.05,102.74h-4.73a.67.67,0,0,1-.67-.67.68.68,0,0,1,.67-.68h4.73a.68.68,0,0,1,.67.68A.67.67,0,0,1,338.05,102.74Z"/><path class="cls-1" d="M336.9,107h-3.58a.67.67,0,0,1,0-1.34h3.58a.67.67,0,1,1,0,1.34Z"/><path class="cls-1" d="M338.05,111.26h-4.73a.67.67,0,0,1,0-1.34h4.73a.67.67,0,1,1,0,1.34Z"/><path class="cls-1" d="M336.9,115.52h-3.58a.67.67,0,0,1,0-1.34h3.58a.67.67,0,0,1,0,1.34Z"/><path class="cls-1" d="M338.05,119.79h-4.73a.68.68,0,0,1-.67-.68.67.67,0,0,1,.67-.67h4.73a.67.67,0,0,1,.67.67A.68.68,0,0,1,338.05,119.79Z"/><path class="cls-1" d="M346.9,128.1H328.34a2.2,2.2,0,1,1,0-4.39H346.9a2.2,2.2,0,1,1,0,4.39Zm-18.56-3a.85.85,0,1,0,0,1.69H346.9a.85.85,0,1,0,0-1.69Z"/><path class="cls-10" d="M311.39,105.77v-17c1.53-.53,2.51-1.31,2.51-2.2,0-1.58-3.16-2.86-7.06-2.86s-7.06,1.28-7.06,2.86c0,.89,1,1.67,2.52,2.2v17a14.74,14.74,0,0,0-9,19.85,3.14,3.14,0,0,0,2.88,1.88H317.5a3.12,3.12,0,0,0,2.88-1.88,14.74,14.74,0,0,0-9-19.85Z"/><path class="cls-7" d="M311.39,105.77v-17c1.53-.53,2.51-1.31,2.51-2.2,0-1.56-3.06-2.82-6.88-2.86V127.5h12.39a14.75,14.75,0,0,0-8-21.73Z"/><path class="cls-2" d="M314.58,109.64H299.11a2.24,2.24,0,0,0-1.56.62,13.2,13.2,0,0,0-2.65,14.94,2.26,2.26,0,0,0,2,1.3h19.8a2.28,2.28,0,0,0,2.05-1.3,13.18,13.18,0,0,0-2.66-14.94A2.22,2.22,0,0,0,314.58,109.64Z"/><path class="cls-8" d="M314.6,109.64H307V126.5h10a1.79,1.79,0,0,0,1.6-1,13.16,13.16,0,0,0-2.51-15.27A2.14,2.14,0,0,0,314.6,109.64Z"/><path class="cls-6" d="M318.58,117.47a.45.45,0,0,1-.44-.36,10.29,10.29,0,0,0-.86-2.54l-.09-.2s-.05-.09-.07-.14a13.5,13.5,0,0,0-2.08-2.88.76.76,0,0,1-.1-.13l-.28-.27a10.75,10.75,0,0,0-1.19-1.06.29.29,0,0,1-.11-.11,1.8,1.8,0,0,1-.39-.29l-.24-.16-.15-.09a.45.45,0,1,1,.49-.75.57.57,0,0,1,.13.08,2.7,2.7,0,0,1,.33.22l0,0a3.74,3.74,0,0,0,.36.26.53.53,0,0,1,.13.13,10.94,10.94,0,0,1,1.24,1.1l.28.26.12.15a14.45,14.45,0,0,1,2.21,3.07c0,.06.07.14.11.21l.06.14,0,0a11.71,11.71,0,0,1,.94,2.76.45.45,0,0,1-.36.52Zm-5.16-7.64h0Zm.56-.68,0,0Z"/><path class="cls-6" d="M317.25,118.6a.45.45,0,0,1-.44-.37,10.23,10.23,0,0,0-.86-2.53l-.09-.2-.07-.14a13.25,13.25,0,0,0-2.08-2.88.53.53,0,0,1-.1-.14l-.28-.26a9.82,9.82,0,0,0-1.19-1.06.29.29,0,0,1-.11-.11,3.27,3.27,0,0,1-.39-.29l-.24-.16-.15-.1a.44.44,0,0,1-.13-.62.45.45,0,0,1,.62-.13l.14.09a3.74,3.74,0,0,1,.32.22l0,0a3.74,3.74,0,0,0,.36.26.53.53,0,0,1,.13.13,11.93,11.93,0,0,1,1.24,1.09l.28.27.12.15a14.45,14.45,0,0,1,2.21,3.07,1,1,0,0,1,.1.21l.07.14,0,0a11.78,11.78,0,0,1,.94,2.77.45.45,0,0,1-.36.52Zm-4.6-8.32,0,0Z"/><circle class="cls-6" cx="317.5" cy="119.59" r="0.44"/><circle class="cls-6" cx="318.89" cy="118.71" r="0.44"/><path class="cls-8" d="M301.75,110.82a1,1,0,1,1-1-.95A1,1,0,0,1,301.75,110.82Z"/><circle class="cls-8" cx="306.85" cy="109.33" r="1.06"/><circle class="cls-2" cx="308.4" cy="113.48" r="1.06"/><path class="cls-2" d="M306.81,101.57a.75.75,0,0,1,1.06,0,.75.75,0,1,1-1.06,1.06A.75.75,0,0,1,306.81,101.57Z"/><path class="cls-2" d="M304.47,95.76a.33.33,0,0,1,.47,0,.32.32,0,0,1,0,.46.33.33,0,0,1-.47,0A.34.34,0,0,1,304.47,95.76Z"/><path class="cls-2" d="M308.5,92.21a.33.33,0,1,1,0,.46A.32.32,0,0,1,308.5,92.21Z"/><path class="cls-8" d="M304.17,107.56a.69.69,0,1,1-1,0A.69.69,0,0,1,304.17,107.56Z"/><path class="cls-1" d="M317.5,128.06H296.18a3.68,3.68,0,0,1-3.39-2.22,15.29,15.29,0,0,1,8.95-20.47V89.18c-1.63-.63-2.52-1.54-2.52-2.59,0-1.66,2.67-3.42,7.62-3.42,3.7,0,7.62,1.2,7.62,3.42,0,1-.89,2-2.51,2.59v16.19a15.32,15.32,0,0,1,8.95,20.47A3.68,3.68,0,0,1,317.5,128.06ZM306.84,84.29c-3.72,0-6.5,1.22-6.5,2.3,0,.58.82,1.22,2.14,1.67l.38.13v17.79l-.39.13a14.14,14.14,0,0,0-9.8,13.48,14,14,0,0,0,1.15,5.61,2.57,2.57,0,0,0,2.36,1.54H317.5a2.57,2.57,0,0,0,2.37-1.54,14.19,14.19,0,0,0-8.66-19.09l-.38-.13V88.39l.38-.13c1.31-.45,2.13-1.09,2.13-1.67C313.34,85.51,310.56,84.29,306.84,84.29Z"/><rect class="cls-3" x="354.14" y="176.51" width="21.84" height="7.33" rx="3.67"/><path class="cls-4" d="M374,176.51h-8.87v7.33H374a2.25,2.25,0,0,0,2-2.44V179A2.26,2.26,0,0,0,374,176.51Z"/><path class="cls-11" d="M378.55,214.89V194.14c0-1.32-1.46-2.39-3.26-2.39h-4.12v-7.91H359v7.95h-4.12c-1.8,0-3.26,1.07-3.26,2.39v20.71a2,2,0,0,0,.49,1.26l.14.15a3.37,3.37,0,0,0,.55.43c.13.08.28.14.42.21s.25.1.39.14a4.33,4.33,0,0,0,1.27.19h20.78a4.32,4.32,0,0,0,1.33-.32l.31-.15a3,3,0,0,0,.65-.49l.15-.15A2,2,0,0,0,378.55,214.89Z"/><path class="cls-9" d="M375.29,191.92h-4.12v-8.08h-6.09v33.43h10.54a4.32,4.32,0,0,0,1.33-.32l.31-.15a3,3,0,0,0,.65-.49l.15-.15a2,2,0,0,0,.49-1.26V194.3C378.55,193,377.09,191.92,375.29,191.92Z"/><path class="cls-6" d="M375.19,213.15a.64.64,0,0,1-.64-.65V194.71a.64.64,0,0,1,.64-.65.65.65,0,0,1,.65.65V212.5A.65.65,0,0,1,375.19,213.15Z"/><rect class="cls-5" x="321.13" y="164.22" width="26.98" height="7.33" rx="3.67"/><path class="cls-12" d="M345.66,164.22H334.72v7.33h10.94a2.45,2.45,0,0,0,2.44-2.45v-2.44A2.44,2.44,0,0,0,345.66,164.22Z"/><path class="cls-11" d="M348.1,214V182.57a3.26,3.26,0,0,0-3.26-3.26h-4.12v-7.76h-12.2v7.76h-4.13a3.26,3.26,0,0,0-3.26,3.26V214a3.26,3.26,0,0,0,.49,1.72l.15.21a3.08,3.08,0,0,0,.55.59l.41.29a3.49,3.49,0,0,0,.39.19,3.17,3.17,0,0,0,1.27.26h20.45a1.88,1.88,0,0,0,.34,0,3.17,3.17,0,0,0,1.32-.43l.31-.21a3.49,3.49,0,0,0,.66-.67l.14-.21A3.26,3.26,0,0,0,348.1,214Z"/><path class="cls-9" d="M344.84,179.31h-4.12v-7.76h-6.09v45.72h10.21a1.88,1.88,0,0,0,.34,0,3.17,3.17,0,0,0,1.32-.43l.31-.21a3.49,3.49,0,0,0,.66-.67l.14-.21a3.26,3.26,0,0,0,.49-1.72V182.57A3.26,3.26,0,0,0,344.84,179.31Z"/><path class="cls-6" d="M344.74,205.62a.64.64,0,0,1-.64-.64v-17.8a.65.65,0,0,1,1.29,0V205A.65.65,0,0,1,344.74,205.62Z"/><rect class="cls-5" x="321.13" y="164.22" width="26.98" height="7.33" rx="3.67"/><path class="cls-12" d="M345.66,164.22H334.72v7.33h10.94a2.45,2.45,0,0,0,2.44-2.45v-2.44A2.44,2.44,0,0,0,345.66,164.22Z"/><path class="cls-11" d="M348.1,214V182.57a3.26,3.26,0,0,0-3.26-3.26h-4.12v-7.76h-12.2v7.76h-4.13a3.26,3.26,0,0,0-3.26,3.26V214a3.26,3.26,0,0,0,.49,1.72l.15.21a3.08,3.08,0,0,0,.55.59l.41.29a3.49,3.49,0,0,0,.39.19,3.17,3.17,0,0,0,1.27.26h20.45a1.88,1.88,0,0,0,.34,0,3.17,3.17,0,0,0,1.32-.43l.31-.21a3.49,3.49,0,0,0,.66-.67l.14-.21A3.26,3.26,0,0,0,348.1,214Z"/><path class="cls-9" d="M344.84,179.31h-4.12v-7.76h-6.09v45.72h10.21a1.88,1.88,0,0,0,.34,0,3.17,3.17,0,0,0,1.32-.43l.31-.21a3.49,3.49,0,0,0,.66-.67l.14-.21a3.26,3.26,0,0,0,.49-1.72V182.57A3.26,3.26,0,0,0,344.84,179.31Z"/><path class="cls-6" d="M344.74,205.62a.64.64,0,0,1-.64-.64v-17.8a.65.65,0,0,1,1.29,0V205A.65.65,0,0,1,344.74,205.62Z"/><rect class="cls-3" x="354.14" y="176.51" width="21.84" height="7.33" rx="3.67"/><path class="cls-4" d="M374,176.51h-8.87v7.33H374a2.25,2.25,0,0,0,2-2.44V179A2.26,2.26,0,0,0,374,176.51Z"/><path class="cls-11" d="M378.55,214.89V194.14c0-1.32-1.46-2.39-3.26-2.39h-4.12v-7.91H359v7.95h-4.12c-1.8,0-3.26,1.07-3.26,2.39v20.71a2,2,0,0,0,.49,1.26l.14.15a3.37,3.37,0,0,0,.55.43c.13.08.28.14.42.21s.25.1.39.14a4.33,4.33,0,0,0,1.27.19h20.78a4.32,4.32,0,0,0,1.33-.32l.31-.15a3,3,0,0,0,.65-.49l.15-.15A2,2,0,0,0,378.55,214.89Z"/><path class="cls-9" d="M375.29,191.92h-4.12v-8.08h-6.09v33.43h10.54a4.32,4.32,0,0,0,1.33-.32l.31-.15a3,3,0,0,0,.65-.49l.15-.15a2,2,0,0,0,.49-1.26V194.3C378.55,193,377.09,191.92,375.29,191.92Z"/><path class="cls-6" d="M375.19,213.15a.64.64,0,0,1-.64-.65V194.71a.64.64,0,0,1,.64-.65.65.65,0,0,1,.65.65V212.5A.65.65,0,0,1,375.19,213.15Z"/><path class="cls-1" d="M344.84,218.08H324.39a4.08,4.08,0,0,1-4.07-4.07V182.57a4.08,4.08,0,0,1,4.07-4.07h3.32v-7.76h13.82v7.76h3.31a4.07,4.07,0,0,1,4.07,4.07V214A4.07,4.07,0,0,1,344.84,218.08Zm-20.45-38a2.45,2.45,0,0,0-2.45,2.45V214a2.45,2.45,0,0,0,2.45,2.45h20.45A2.46,2.46,0,0,0,347.3,214V182.57a2.46,2.46,0,0,0-2.46-2.45h-4.93v-7.76H329.32v7.76Z"/><path class="cls-1" d="M345.66,172.36H323.57a3.26,3.26,0,0,1-3.25-3.26v-2.44a3.26,3.26,0,0,1,3.25-3.25h22.09a3.26,3.26,0,0,1,3.25,3.25v2.44A3.26,3.26,0,0,1,345.66,172.36ZM323.57,165a1.63,1.63,0,0,0-1.63,1.63v2.44a1.64,1.64,0,0,0,1.63,1.64h22.09a1.65,1.65,0,0,0,1.64-1.64v-2.44a1.64,1.64,0,0,0-1.64-1.63Z"/><path class="cls-1" d="M374.05,184.65h-18a3,3,0,0,1-3-3v-2.87a3,3,0,0,1,3-3h18a3,3,0,0,1,3,3v2.87A3,3,0,0,1,374.05,184.65Zm-18-7.33a1.43,1.43,0,0,0-1.42,1.42v2.87a1.43,1.43,0,0,0,1.42,1.42h18a1.43,1.43,0,0,0,1.42-1.42v-2.87a1.43,1.43,0,0,0-1.42-1.42Z"/><path class="cls-1" d="M375.29,218.08H354.84a5.41,5.41,0,0,1-1.51-.22l-.47-.18-.52-.26a4,4,0,0,1-.7-.55,1.71,1.71,0,0,1-.18-.2,2.73,2.73,0,0,1-.69-1.78V194.18c0-1.79,1.79-3.19,4.07-3.19h3.31v-8H372V191h3.32c2.28,0,4.07,1.4,4.07,3.19v20.75a2.73,2.73,0,0,1-.69,1.78,1.8,1.8,0,0,1-.19.2,3.46,3.46,0,0,1-.83.62l-.38.19a5.3,5.3,0,0,1-1.59.39ZM354.84,192.6c-1.33,0-2.45.72-2.45,1.58v20.71a1.11,1.11,0,0,0,.3.73l.09.1a2,2,0,0,0,.4.31,2.32,2.32,0,0,0,.32.17l.31.11a3.47,3.47,0,0,0,1,.15h20.72a3.42,3.42,0,0,0,1.07-.25l.24-.12a2.15,2.15,0,0,0,.48-.36l.09-.1a1.11,1.11,0,0,0,.3-.73V194.14c0-.85-1.12-1.58-2.45-1.58h-4.93v-7.91H359.77v7.95Z"/><circle class="cls-7" cx="262.17" cy="110.88" r="19.04"/><path class="cls-11" d="M262.17,91.84h-.05v38.08h.05a19,19,0,0,0,0-38.08Z"/><circle class="cls-13" cx="262.17" cy="110.88" r="11"/><circle class="cls-3" cx="262.17" cy="110.88" r="3.79"/><path class="cls-14" d="M257.64,102.87a1.63,1.63,0,0,0,2,.76,7.68,7.68,0,0,1,5.2,0,1.67,1.67,0,0,0,2-.7l2.25-3.83a1.65,1.65,0,0,0-.74-2.35,14.06,14.06,0,0,0-12.21-.13,1.65,1.65,0,0,0-.72,2.31Z"/><path class="cls-3" d="M262.2,95.31v7.88a7.64,7.64,0,0,1,2.61.46,1.73,1.73,0,0,0,2.07-.77L269,99.21a1.74,1.74,0,0,0-.78-2.48A15,15,0,0,0,262.2,95.31Z"/><path class="cls-14" d="M257.65,118.54a1.37,1.37,0,0,0-.33-1.76,7.66,7.66,0,0,1-2.79-4.83,1.38,1.38,0,0,0-1.36-1.17h-5a1.38,1.38,0,0,0-1.37,1.51,14.1,14.1,0,0,0,6.36,11.08,1.38,1.38,0,0,0,2-.46Z"/><path class="cls-3" d="M248.7,118.66l6.79-4a7.74,7.74,0,0,1-1-2.84,1.18,1.18,0,0,0-1.16-1H248a1.18,1.18,0,0,0-1.17,1.26A15.53,15.53,0,0,0,248.7,118.66Z"/><path class="cls-14" d="M266.29,118.47a1.27,1.27,0,0,1,.31-1.64,7.72,7.72,0,0,0,2.87-5,1.26,1.26,0,0,1,1.26-1.08h5.18a1.27,1.27,0,0,1,1.27,1.37,14.1,14.1,0,0,1-6.49,11.3,1.27,1.27,0,0,1-1.78-.45Z"/><path class="cls-3" d="M275.28,118.66l-6.79-4a7.58,7.58,0,0,0,1-2.82,1.24,1.24,0,0,1,1.24-1.07h5.21a1.27,1.27,0,0,1,1.27,1.36A15.5,15.5,0,0,1,275.28,118.66Z"/><path class="cls-1" d="M262.17,130.48a19.6,19.6,0,1,1,19.6-19.6A19.62,19.62,0,0,1,262.17,130.48Zm0-38.08a18.48,18.48,0,1,0,18.48,18.48A18.5,18.5,0,0,0,262.17,92.4Z"/><path class="cls-1" d="M262.17,115.23a4.35,4.35,0,1,1,4.35-4.35A4.35,4.35,0,0,1,262.17,115.23Zm0-7.58a3.23,3.23,0,1,0,3.23,3.23A3.23,3.23,0,0,0,262.17,107.65Z"/><path class="cls-15" d="M266.23,116.41a7.07,7.07,0,0,0,2.68-4.65,1.8,1.8,0,0,1,1.79-1.54h1.89a10.46,10.46,0,0,0-4.65-8l-.47.8a2.58,2.58,0,0,1-2.23,1.26,2.54,2.54,0,0,1-.81-.13,7.09,7.09,0,0,0-4.37,0A2.58,2.58,0,0,1,257,102.9l-.46-.81a10.44,10.44,0,0,0-4.79,8.13H253a2.17,2.17,0,0,1,2.13,1.81,7.14,7.14,0,0,0,2.45,4.23A2.16,2.16,0,0,1,258,119h0l-.65,1.13a10.37,10.37,0,0,0,9.31.15l-.9-1.57A1.79,1.79,0,0,1,266.23,116.41Z"/><path class="cls-1" d="M277.27,110.8a1.79,1.79,0,0,0-1.32-.58h-2.24a11.54,11.54,0,0,0-5.2-9l.87-1.47a2.6,2.6,0,0,0-1.22-3.68A14.53,14.53,0,0,0,256.31,96a2.55,2.55,0,0,0-1.39,1.52,2.61,2.61,0,0,0,.2,2.1l.88,1.54a11.56,11.56,0,0,0-5.36,9.11h-2.22a2.18,2.18,0,0,0-1.6.71,2.21,2.21,0,0,0-.55,1.65,14.78,14.78,0,0,0,6.39,11.13,2.16,2.16,0,0,0,1.2.36,2.61,2.61,0,0,0,.48,0,2.18,2.18,0,0,0,1.39-1l1.08-1.88a11.49,11.49,0,0,0,10.44.15l1.19,2.06a1.86,1.86,0,0,0,1.13.85,2.28,2.28,0,0,0,.44,0A1.8,1.8,0,0,0,271,124a14.76,14.76,0,0,0,6.79-11.81A1.8,1.8,0,0,0,277.27,110.8ZM256.1,99a1.48,1.48,0,0,1-.12-1.18,1.44,1.44,0,0,1,.78-.86,13.44,13.44,0,0,1,10.95.13,1.45,1.45,0,0,1,.7,2.08l-.87,1.47-.56,1-.47.79a1.45,1.45,0,0,1-1.73.64,8,8,0,0,0-2.59-.43,8.37,8.37,0,0,0-2.47.38,1.44,1.44,0,0,1-1.73-.66l-.46-.8-.55-1Zm-1.34,23.42a1,1,0,0,1-.67.49,1,1,0,0,1-.8-.14,13.47,13.47,0,0,1-5.9-10.31,1,1,0,0,1,1-1.13H253a1.06,1.06,0,0,1,1,.89,8.22,8.22,0,0,0,2.84,4.89,1.06,1.06,0,0,1,.21,1.33l-.65,1.12-.56,1Zm7.41-1.11a10.32,10.32,0,0,1-4.79-1.18L258,119a2.16,2.16,0,0,0-.47-2.75,7.14,7.14,0,0,1-2.45-4.23,2.17,2.17,0,0,0-2.13-1.81h-1.22a10.44,10.44,0,0,1,4.79-8.13l.46.81a2.58,2.58,0,0,0,3.05,1.17,7.09,7.09,0,0,1,4.37,0,2.54,2.54,0,0,0,.81.13,2.58,2.58,0,0,0,2.23-1.26l.47-.8a10.46,10.46,0,0,1,4.65,8H270.7a1.8,1.8,0,0,0-1.79,1.54,7.07,7.07,0,0,1-2.68,4.65,1.79,1.79,0,0,0-.44,2.31l.9,1.57A10.38,10.38,0,0,1,262.17,121.32Zm8.19,1.68a.69.69,0,0,1-.95-.24l-1.18-2-.56-1-.91-1.59a.68.68,0,0,1,.16-.87,8.22,8.22,0,0,0,3.11-5.38.67.67,0,0,1,.67-.57H276a.68.68,0,0,1,.68.73A13.64,13.64,0,0,1,270.36,123Z"/><polygon class="cls-7" points="296.02 66.72 302.57 42.69 301.14 42.57 287.91 55.3 296.02 66.72"/><polygon class="cls-7" points="302.82 42.69 296.02 66.72 297.14 66.68 316.88 58.66 316.88 57.04 303.72 42.07 302.82 42.69"/><polygon class="cls-14" points="303.39 42.69 306.84 62.82 316.88 58.66 317.34 56.65 303.72 42.07 303.39 42.69"/><polygon class="cls-14" points="301.81 43.02 291.2 60.43 296.02 66.72 302.82 42.69 301.81 43.02"/><path class="cls-1" d="M296.56,67.28a2,2,0,0,1-1.54-.6l-.14-.12,0,0-7.2-10.1a1.34,1.34,0,0,1,0-1.92l13.58-12.73a2.14,2.14,0,0,1,1.57-.54,2.83,2.83,0,0,1,1.94,1l12,13.45a2.88,2.88,0,0,1,1,2.52c-.21.8-1,1.41-2.35,1.87l-18.09,7.19h-.06A4.12,4.12,0,0,1,296.56,67.28Zm-.85-1.48.05,0c.27.24.44.39,1.24.29L315,59c.95-.31,1.53-.7,1.64-1.1s-.15-.85-.72-1.49l-12-13.44a1.72,1.72,0,0,0-1.17-.6,1,1,0,0,0-.75.25L288.44,55.31a.22.22,0,0,0-.07.16.2.2,0,0,0,.07.15l.05.05,0,0Z"/><rect class="cls-1" x="286.49" y="53.69" width="25.85" height="1.12" transform="translate(168.26 328.83) rotate(-74.74)"/><circle class="cls-1" cx="296.02" cy="66.72" r="2.13" transform="translate(163.07 339.49) rotate(-76.72)"/><circle class="cls-1" cx="316.88" cy="57.68" r="2.13"/><circle class="cls-1" cx="302.82" cy="41.77" r="2.13"/><circle class="cls-1" cx="287.81" cy="55.55" r="2.13"/><path class="cls-3" d="M97.47,161.46A4.16,4.16,0,0,0,98.69,165a2.47,2.47,0,0,0,3.33,0,4.12,4.12,0,0,0,.31-5.57c-.43-.55-1-.95-1.49-1.46a2.09,2.09,0,0,1-.55-1.17c0-.11,0-.56,0-.63-1-.8-2.71,4.68-2.78,5.23Z"/><ellipse class="cls-16" cx="100.28" cy="162.49" rx="1.68" ry="2.68"/><path class="cls-7" d="M102.53,168.18v-1.31H98.18v1.31a10.85,10.85,0,1,0,4.35,0Z"/><path class="cls-11" d="M102.53,168.18v-1.31H100.3v22.77h.06a10.84,10.84,0,0,0,2.17-21.46Z"/><rect class="cls-11" x="89.57" y="186.28" width="21.57" height="3.96" rx="1.98" transform="translate(200.71 376.52) rotate(-180)"/><path class="cls-9" d="M109.25,186.28h-8.92v4h8.92a1.89,1.89,0,0,0,1.89-1.89v-.18A1.89,1.89,0,0,0,109.25,186.28Z"/><path class="cls-1" d="M100.36,166.09a2.94,2.94,0,0,1-2-.75A4.52,4.52,0,0,1,97,161.41v-.07c0-.25,1.35-5.11,2.7-5.65a.77.77,0,0,1,.81.12c.23.19.21.49.19.81v.12a1.58,1.58,0,0,0,.44.91,7.48,7.48,0,0,0,.64.61,7.08,7.08,0,0,1,.86.87,4.55,4.55,0,0,1-.36,6.18A2.84,2.84,0,0,1,100.36,166.09Zm-2.44-4.58A3.66,3.66,0,0,0,99,164.67a2,2,0,0,0,2.72,0,3.66,3.66,0,0,0,.27-5,6.82,6.82,0,0,0-.76-.76,6.57,6.57,0,0,1-.71-.69,2.5,2.5,0,0,1-.67-1.41v-.11a17.83,17.83,0,0,0-1.91,4.72Z"/><rect class="cls-1" x="98.34" y="165.55" width="4.03" height="1.49" rx="0.26"/><path class="cls-15" d="M92.3,186.84h-.84a1.34,1.34,0,0,0-1.33,1.33v.18a1.34,1.34,0,0,0,1.33,1.33H97A11.5,11.5,0,0,1,92.3,186.84Z"/><path class="cls-15" d="M106.76,186.84H94a10.24,10.24,0,0,0,12.78,0Z"/><path class="cls-15" d="M103.77,189.68h5.48a1.34,1.34,0,0,0,1.33-1.33v-.18a1.34,1.34,0,0,0-1.33-1.33h-.81l-.18.17A11.22,11.22,0,0,1,103.77,189.68Z"/><path class="cls-15" d="M110.64,178.8a10.23,10.23,0,0,0-7.2-9.81,2.08,2.08,0,0,1-1.42-1.56H98.69A2.08,2.08,0,0,1,97.26,169a10.26,10.26,0,0,0-4.48,16.73H108A10.21,10.21,0,0,0,110.64,178.8Z"/><path class="cls-1" d="M92.78,185.72A10.26,10.26,0,0,1,97.26,169a2.08,2.08,0,0,0,1.43-1.56H102a2.08,2.08,0,0,0,1.42,1.56A10.28,10.28,0,0,1,108,185.72h1.46a11.41,11.41,0,0,0-5.64-17.81,1,1,0,0,1-.69-.92h0a.69.69,0,0,0-.69-.69H98.31a.69.69,0,0,0-.69.69,1,1,0,0,1-.69.92,11.42,11.42,0,0,0-8,11.44,11.27,11.27,0,0,0,2.35,6.37h1.46Z"/><path class="cls-1" d="M109.42,185.73H91.32A2.45,2.45,0,0,0,89,188.17v.18a2.45,2.45,0,0,0,2.45,2.45h17.79a2.45,2.45,0,0,0,2.45-2.45v-.18A2.45,2.45,0,0,0,109.42,185.73Zm1.16,2.62a1.34,1.34,0,0,1-1.33,1.33H91.46a1.34,1.34,0,0,1-1.33-1.33v-.18a1.34,1.34,0,0,1,1.33-1.33h17.79a1.34,1.34,0,0,1,1.33,1.33Z"/><circle class="cls-17" cx="220.1" cy="167.31" r="10.33" transform="translate(-41.67 256.24) rotate(-56.01)"/><circle class="cls-18" cx="220.1" cy="167.31" r="8.48" transform="translate(-40.83 75.93) rotate(-17.94)"/><path class="cls-6" d="M226,165.1a.35.35,0,0,1-.42-.17,6.49,6.49,0,0,0-9.37-2.54.34.34,0,0,1-.47-.1.33.33,0,0,1,.1-.46,7.17,7.17,0,0,1,10.34,2.8.33.33,0,0,1-.15.45Z"/><path class="cls-17" d="M253.63,188.06h0a1.42,1.42,0,0,1-2,.44l-6.42-4.06a1.43,1.43,0,0,1-.44-2h0a1.43,1.43,0,0,1,2-.44l6.41,4.06A1.43,1.43,0,0,1,253.63,188.06Z"/><path class="cls-1" d="M223.86,177.54a10.85,10.85,0,0,1-5.4.54h0a10.76,10.76,0,1,1,5.4-.54Zm-7.14-19.41a10.11,10.11,0,0,0-2.42,1.3A9.78,9.78,0,0,0,218.63,177h0a9.78,9.78,0,1,0-1.91-18.84Z"/><path class="cls-1" d="M223.18,175.68a8.79,8.79,0,0,1-4.43.45h0a8.93,8.93,0,0,1-3.95-16,8.85,8.85,0,0,1,6.64-1.64,8.93,8.93,0,0,1,1.74,17.2Zm-5.86-15.91a7.76,7.76,0,0,0-2,1.07,8,8,0,0,0-3.18,5.26,8,8,0,0,0,6.73,9.15h0a8,8,0,0,0,9.14-6.74,8,8,0,0,0-10.71-8.74Z"/><rect class="cls-1" x="236.51" y="167.96" width="1.35" height="19.19" transform="translate(-39.72 282.96) rotate(-57.66)"/><path class="cls-1" d="M253.12,189.16a2,2,0,0,1-1.75-.19L245,184.91a2,2,0,0,1,2.13-3.35l6.41,4.06a2,2,0,0,1,.62,2.74h0A2,2,0,0,1,253.12,189.16Zm-7.4-6.73a.81.81,0,0,0-.43.34.87.87,0,0,0,.26,1.2L252,188a.87.87,0,0,0,1.19-.27.86.86,0,0,0-.27-1.19l-6.41-4.06A.86.86,0,0,0,245.72,182.43Z"/><path class="cls-14" d="M82.64,82.31a.36.36,0,0,1-.31-.18l-3.42-6.48a.35.35,0,0,1,.61-.33L83,81.8a.35.35,0,0,1-.15.47A.29.29,0,0,1,82.64,82.31Z"/><path class="cls-14" d="M75.67,85.45a.35.35,0,0,1-.31-.18l-3-5.63a.35.35,0,0,1,.15-.47.35.35,0,0,1,.47.14l3,5.63a.35.35,0,0,1-.15.47A.32.32,0,0,1,75.67,85.45Z"/><path class="cls-14" d="M73.36,86.86a.34.34,0,0,1-.3-.19l-3.2-6a.34.34,0,0,1,.15-.47.35.35,0,0,1,.47.15l3.19,6a.35.35,0,0,1-.14.47A.33.33,0,0,1,73.36,86.86Z"/><path class="cls-14" d="M71,87.84a.33.33,0,0,1-.3-.18l-2.87-5.41a.35.35,0,0,1,.15-.47.35.35,0,0,1,.47.14l2.86,5.41a.35.35,0,0,1-.14.47A.33.33,0,0,1,71,87.84Z"/><path class="cls-14" d="M64.88,92.27a.33.33,0,0,1-.31-.18L60.7,84.78a.35.35,0,0,1,.14-.47.36.36,0,0,1,.48.14l3.86,7.31a.35.35,0,0,1-.14.47A.32.32,0,0,1,64.88,92.27Z"/><path class="cls-1" d="M70.48,88.07a7.57,7.57,0,0,1-2.6-.45,16,16,0,0,1-2.49-1.23,18.24,18.24,0,0,0-2-1c-1.27-.53-3-.77-4.14.15a.56.56,0,0,1-.72-.86c1.28-1.06,3.26-1.18,5.29-.33a21.38,21.38,0,0,1,2.08,1.07,15.31,15.31,0,0,0,2.33,1.16c3,1.09,6.58-.2,7.81-2.82a11.21,11.21,0,0,0,.75-3.3,14.28,14.28,0,0,1,.67-3.19A7.29,7.29,0,0,1,82.05,73a.55.55,0,0,1,.7.36.57.57,0,0,1-.37.71,6.12,6.12,0,0,0-3.83,3.61A12.46,12.46,0,0,0,78,80.6a12.17,12.17,0,0,1-.86,3.62A7.26,7.26,0,0,1,70.48,88.07Z"/><path class="cls-1" d="M63.2,93.86a.56.56,0,0,1-.15-1.1c1.4-.39,2.21-2,2.5-3.3a21.4,21.4,0,0,0,.3-2.19,15.52,15.52,0,0,1,.42-2.75c1-3.63,4.68-6.19,8.07-5.58a11.88,11.88,0,0,1,3.46,1.38,12.86,12.86,0,0,0,2.75,1.19,6.14,6.14,0,0,0,5.16-1.06.56.56,0,0,1,.69.89,7.32,7.32,0,0,1-6.12,1.26,13.38,13.38,0,0,1-3-1.29A11.09,11.09,0,0,0,74.15,80c-2.85-.51-6,1.68-6.8,4.77A16.22,16.22,0,0,0,67,87.38a21.11,21.11,0,0,1-.31,2.32c-.47,2.15-1.71,3.7-3.3,4.14Z"/><circle class="cls-7" cx="265.38" cy="39.77" r="14.83" transform="translate(165.7 288.91) rotate(-76.72)"/><path class="cls-19" d="M265.43,24.94h-.05V54.6h.05a14.83,14.83,0,0,0,0-29.66Z"/><rect class="cls-1" x="253.06" y="65.59" width="24.74" height="3.81" rx="1.9"/><path class="cls-1" d="M265.43,55.29A15.52,15.52,0,1,1,281,39.77,15.53,15.53,0,0,1,265.43,55.29Zm0-29.66a14.14,14.14,0,1,0,14.14,14.14A14.16,14.16,0,0,0,265.43,25.63Z"/><path class="cls-1" d="M264.8,60.68h0a20.92,20.92,0,0,1,0-41.82.69.69,0,0,1,0,1.38,19.54,19.54,0,0,0,0,39.06.69.69,0,0,1,0,1.38Z"/><path class="cls-1" d="M265.43,66.51a.69.69,0,0,1-.69-.69V14.32a.69.69,0,1,1,1.38,0v51.5A.69.69,0,0,1,265.43,66.51Z"/><path class="cls-1" d="M261.22,54.68a.71.71,0,0,1-.56-.27c-4.16-5.51-5.48-12.32-3.82-19.69a32.65,32.65,0,0,1,3.79-9.54.69.69,0,0,1,1.17.74,31.56,31.56,0,0,0-3.62,9.15c-1.58,7-.37,13.27,3.59,18.5a.69.69,0,0,1-.14,1A.7.7,0,0,1,261.22,54.68Z"/><path class="cls-1" d="M251.21,36.27a.69.69,0,0,1-.55-.27.7.7,0,0,1,.13-1c5.51-4.16,12.32-5.48,19.69-3.82A32.34,32.34,0,0,1,280,35a.69.69,0,0,1-.74,1.17,31.24,31.24,0,0,0-9.15-3.62c-7-1.58-13.27-.37-18.5,3.59A.72.72,0,0,1,251.21,36.27Z"/><path class="cls-1" d="M264.43,48.37a22.23,22.23,0,0,1-13.64-4.52.69.69,0,0,1,.84-1.1c5.23,4,11.46,5.16,18.5,3.59a31.9,31.9,0,0,0,9.15-3.62.69.69,0,1,1,.74,1.16,32.2,32.2,0,0,1-9.54,3.8A27.8,27.8,0,0,1,264.43,48.37Z"/><path class="cls-1" d="M269.64,54.68a.7.7,0,0,1-.41-.14.69.69,0,0,1-.14-1c9.47-12.53.07-27.5,0-27.65a.69.69,0,0,1,1.17-.74A32.65,32.65,0,0,1,274,34.72c1.66,7.37.34,14.18-3.82,19.69A.71.71,0,0,1,269.64,54.68Z"/><path class="cls-1" d="M280.24,40.46H250.6a.69.69,0,1,1,0-1.38h29.64a.69.69,0,0,1,0,1.38Z"/><polygon class="cls-3" points="186.17 183.83 180.48 183.83 177.63 178.9 180.48 173.96 186.17 173.96 189.02 178.9 186.17 183.83"/><polygon class="cls-5" points="194.72 188.76 189.02 188.76 186.17 183.83 189.02 178.9 194.72 178.9 197.56 183.83 194.72 188.76"/><polygon class="cls-2" points="194.72 178.9 189.02 178.9 186.17 173.96 189.02 169.03 194.72 169.03 197.56 173.96 194.72 178.9"/><path class="cls-1" d="M186.4,184.22h-6.15l-3.07-5.33,3.07-5.32h6.15l3.07,5.32Zm-5.7-.78H186l2.62-4.55L186,174.35H180.7l-2.62,4.54Z"/><path class="cls-1" d="M194.94,189.15H188.8l-3.07-5.32,3.07-5.32h6.14l3.07,5.32Zm-5.69-.78h5.24l2.63-4.54-2.63-4.55h-5.24l-2.63,4.55Z"/><path class="cls-1" d="M194.94,179.28H188.8L185.73,174l3.07-5.32h6.14L198,174Zm-5.69-.77h5.24l2.63-4.55-2.63-4.54h-5.24L186.62,174Z"/><path class="cls-1" d="M180.25,174.16a.37.37,0,0,1-.34-.19L177,169.06a.39.39,0,1,1,.67-.39l2.89,4.91a.38.38,0,0,1-.14.53A.34.34,0,0,1,180.25,174.16Z"/><path class="cls-1" d="M189,169.42a.39.39,0,0,1-.33-.19l-2.89-4.91a.39.39,0,0,1,.67-.39l2.89,4.91a.38.38,0,0,1-.14.53A.46.46,0,0,1,189,169.42Z"/><path class="cls-1" d="M186.12,194a.41.41,0,0,1-.19,0,.38.38,0,0,1-.15-.53l2.73-5a.4.4,0,0,1,.53-.16.38.38,0,0,1,.15.53l-2.73,5A.39.39,0,0,1,186.12,194Z"/><path class="cls-1" d="M177.57,189.21a.41.41,0,0,1-.18-.05.38.38,0,0,1-.16-.52l2.74-5a.38.38,0,0,1,.53-.15.39.39,0,0,1,.15.52l-2.73,5A.41.41,0,0,1,177.57,189.21Z"/><path class="cls-1" d="M194.83,169.27a.45.45,0,0,1-.19-.05.4.4,0,0,1-.15-.53l2.81-5a.39.39,0,0,1,.68.38l-2.81,5A.38.38,0,0,1,194.83,169.27Z"/><path class="cls-1" d="M197.64,194.1a.38.38,0,0,1-.34-.2l-2.81-5a.39.39,0,0,1,.15-.53.38.38,0,0,1,.53.15l2.81,5a.39.39,0,0,1-.15.53A.45.45,0,0,1,197.64,194.1Z"/><path class="cls-1" d="M197.64,174.19a.4.4,0,0,1-.39-.39.39.39,0,0,1,.39-.39l5.69,0h0a.39.39,0,0,1,0,.78l-5.7.05Z"/><path class="cls-1" d="M197.55,184a.39.39,0,0,1-.39-.38.4.4,0,0,1,.39-.4l5.69,0h0a.38.38,0,0,1,.39.38.4.4,0,0,1-.38.4l-5.7,0Z"/><path class="cls-1" d="M187.94,168.93a1,1,0,1,1,2.08,0,1,1,0,1,1-2.08,0Z"/><path class="cls-1" d="M193.79,168.93a1,1,0,1,1,2.08,0,1,1,0,1,1-2.08,0Z"/><path class="cls-1" d="M196.44,173.89a1,1,0,1,1,1,1A1,1,0,0,1,196.44,173.89Z"/><path class="cls-1" d="M185.18,173.89a1,1,0,1,1,1,1A1,1,0,0,1,185.18,173.89Z"/><path class="cls-1" d="M179.27,173.89a1,1,0,1,1,1,1A1,1,0,0,1,179.27,173.89Z"/><path class="cls-1" d="M176.53,178.89a1,1,0,1,1,1,1.05A1,1,0,0,1,176.53,178.89Z"/><path class="cls-1" d="M187.81,178.89a1,1,0,1,1,1,1.05A1,1,0,0,1,187.81,178.89Z"/><path class="cls-1" d="M193.79,178.89a1,1,0,1,1,1,1.05A1,1,0,0,1,193.79,178.89Z"/><path class="cls-1" d="M196.52,183.83a1,1,0,1,1,1,1A1,1,0,0,1,196.52,183.83Z"/><path class="cls-1" d="M193.79,188.56a1,1,0,0,1,2.08,0,1,1,0,1,1-2.08,0Z"/><path class="cls-1" d="M187.94,188.56a1,1,0,0,1,2.08,0,1,1,0,0,1-2.08,0Z"/><path class="cls-1" d="M185.05,184a1,1,0,1,1,1,1A1,1,0,0,1,185.05,184Z"/><path class="cls-1" d="M179.2,184a1,1,0,1,1,1.05,1A1,1,0,0,1,179.2,184Z"/><path class="cls-14" d="M344,49.8a2.33,2.33,0,1,1-1.55-4.4A2.33,2.33,0,0,1,344,49.8Z"/><path class="cls-3" d="M336.55,38.37a2.33,2.33,0,1,1,1.43-3A2.33,2.33,0,0,1,336.55,38.37Z"/><circle class="cls-3" cx="361.93" cy="43.95" r="2.33"/><path class="cls-3" d="M336,66.13a2.33,2.33,0,1,1,1.42-3A2.33,2.33,0,0,1,336,66.13Z"/><path class="cls-1" d="M364.65,43a2.88,2.88,0,0,0-5.6.83L345.9,46.52a2.89,2.89,0,0,0-3.6-1.65l-4.43-6.72a2.91,2.91,0,0,0,.63-2.94A2.88,2.88,0,0,0,337,33.57a2.88,2.88,0,0,0-3.84,1.35,2.81,2.81,0,0,0-.12,2.2,2.87,2.87,0,0,0,2.72,1.93,2.76,2.76,0,0,0,.93-.16l4.43,6.73a2.89,2.89,0,0,0-.63,2.93A2.86,2.86,0,0,0,341.65,50L336.1,61.18a2.88,2.88,0,1,0-.85,5.63,2.92,2.92,0,0,0,.95-.16h0A2.88,2.88,0,0,0,338,63a2.76,2.76,0,0,0-.68-1.07L343,50.46l.28,0a2.92,2.92,0,0,0,.95-.16h0a2.85,2.85,0,0,0,1.64-1.48,2.71,2.71,0,0,0,.27-1l13.22-2.71A2.88,2.88,0,0,0,364.65,43Zm-28.28-5.15a1.78,1.78,0,1,1-1.18-3.36,1.7,1.7,0,0,1,.59-.1,1.91,1.91,0,0,1,.77.17,1.78,1.78,0,0,1-.18,3.29Zm.48,26.85a1.79,1.79,0,0,1-1,.91h0a1.77,1.77,0,1,1,1-.91Zm8-16.33a1.79,1.79,0,0,1-1,.91h0a1.78,1.78,0,1,1-.59-3.46,1.79,1.79,0,0,1,1.61,2.55Zm17.68-2.74a1.78,1.78,0,0,1-1.18-3.36,1.7,1.7,0,0,1,.59-.1,1.78,1.78,0,0,1,.59,3.46Z"/><circle class="cls-14" cx="184.17" cy="35.56" r="0.81"/><path class="cls-6" d="M190.35,43.14V68.76h-.57a2,2,0,0,1-2-2V45.55c-.79-.25-1.28-.62-1.28-1C186.54,43.76,188.24,43.15,190.35,43.14Z"/><path class="cls-7" d="M190.13,43.14V68.76h.62a2,2,0,0,0,2.07-2V45.55c.83-.25,1.35-.62,1.35-1C194.17,43.76,192.37,43.15,190.13,43.14Z"/><path class="cls-2" d="M188.32,47.37V65.82c0,1.13.05,2,1.08,2.06h1.48c1,0,1.07-.93,1.07-2.06V47.37Z"/><path class="cls-8" d="M190.13,47.37V67.88h.75c1,0,1.07-.93,1.07-2.06V47.37Z"/><circle class="cls-14" cx="195.86" cy="35.56" r="0.81"/><path class="cls-6" d="M182.83,44.53c0-.77-1.72-1.39-3.85-1.39s-3.85.62-3.85,1.39c0,.4.5.77,1.28,1V66.81a2,2,0,0,0,2,2h1.22a2,2,0,0,0,2-2V45.55C182.34,45.3,182.83,44.93,182.83,44.53Z"/><path class="cls-7" d="M179,43.14V68.77h.61a2,2,0,0,0,2.08-2V45.55c.83-.25,1.35-.62,1.35-1C183,43.77,181.22,43.15,179,43.14Z"/><path class="cls-5" d="M177.17,48V65.82c0,1.13.05,2,1.08,2.06h1.47c1,0,1.08-.93,1.08-2.06V48Z"/><path class="cls-12" d="M179,48V67.88h.74c1,0,1.08-.93,1.08-2.06V48Z"/><path class="cls-20" d="M174.9,35.81h0a7.12,7.12,0,0,1-10,1h0a7.12,7.12,0,0,1,10-1Z"/><path class="cls-21" d="M164.87,36.77h0l.39.32a6.62,6.62,0,0,0,9.32-.89l.32-.39,0,0Z"/><path class="cls-20" d="M183.15,31.45h0a7.13,7.13,0,0,1,10-.76h0a7.13,7.13,0,0,1-10,.76Z"/><path class="cls-21" d="M193.2,30.69h0l-.38-.33a6.63,6.63,0,0,0-9.34.7l-.33.39,0,0Z"/><path class="cls-6" d="M200.62,43.14V68.76H200a2,2,0,0,1-2-2V45.55c-.79-.25-1.28-.62-1.28-1C196.8,43.76,198.5,43.15,200.62,43.14Z"/><path class="cls-7" d="M200.47,43.14V68.76h.6a2,2,0,0,0,2-2V45.55c.81-.25,1.32-.62,1.32-1C204.43,43.76,202.66,43.15,200.47,43.14Z"/><path class="cls-3" d="M198.6,48.18v17.7c0,1.13.05,2,1.08,2.05h1.48c1,0,1.07-.92,1.07-2.05V48.18Z"/><path class="cls-4" d="M200.41,48.18V67.93h.75c1,0,1.07-.92,1.07-2.05V48.18Z"/><path class="cls-14" d="M204.2,32.31a1,1,0,0,1,1.25-.43.93.93,0,1,1-1.25.43Z"/><path class="cls-1" d="M190.74,69.32h-1.22A2.52,2.52,0,0,1,187,66.8V45.94c-1-.43-1.28-1-1.28-1.42,0-1.33,2.29-1.94,4.41-1.94s4.41.61,4.41,1.94c0,.42-.23,1-1.27,1.42V66.8A2.53,2.53,0,0,1,190.74,69.32Zm-3.89-24.8c0,.07.25.29.88.5l.39.12V66.8a1.4,1.4,0,0,0,1.4,1.4h1.22a1.4,1.4,0,0,0,1.4-1.4V45.14l.39-.12a1.69,1.69,0,0,0,.89-.5c-.11-.24-1.22-.82-3.29-.82S187,44.28,186.85,44.52Z"/><path class="cls-1" d="M190.88,43.7h-.07a.57.57,0,0,1-.49-.62c0-.26.75-6.35,4.53-7.8a.56.56,0,1,1,.41,1c-3.16,1.21-3.82,6.82-3.83,6.87A.55.55,0,0,1,190.88,43.7Z"/><path class="cls-1" d="M189.64,43.37a.57.57,0,0,1-.55-.47s-.92-5.38-4.09-6.59a.57.57,0,0,1-.32-.73.55.55,0,0,1,.72-.32c3.77,1.44,4.76,7.21,4.8,7.46a.56.56,0,0,1-.47.64Z"/><path class="cls-1" d="M192.52,49.8h-1.8a.56.56,0,0,1,0-1.12h1.8a.56.56,0,1,1,0,1.12Z"/><path class="cls-1" d="M192.52,52.83h-1.8a.56.56,0,0,1,0-1.12h1.8a.56.56,0,1,1,0,1.12Z"/><path class="cls-1" d="M192.52,55.86h-1.8a.56.56,0,0,1,0-1.12h1.8a.56.56,0,1,1,0,1.12Z"/><path class="cls-1" d="M192.52,58.89h-1.8a.57.57,0,0,1-.56-.57.56.56,0,0,1,.56-.56h1.8a.56.56,0,0,1,.56.56A.57.57,0,0,1,192.52,58.89Z"/><path class="cls-1" d="M192.52,61.91h-1.8a.56.56,0,0,1,0-1.12h1.8a.56.56,0,1,1,0,1.12Z"/><path class="cls-1" d="M192.52,64.94h-1.8a.56.56,0,1,1,0-1.12h1.8a.56.56,0,1,1,0,1.12Z"/><path class="cls-1" d="M184.17,36.71a1.15,1.15,0,0,1,0-2.3,1.15,1.15,0,1,1,0,2.3Zm0-1.62a.48.48,0,1,0,.47.47A.47.47,0,0,0,184.17,35.09Z"/><path class="cls-1" d="M195.86,36.71a1.15,1.15,0,0,1,0-2.3,1.15,1.15,0,1,1,0,2.3Zm0-1.62a.48.48,0,1,0,.47.47A.47.47,0,0,0,195.86,35.09Z"/><path class="cls-1" d="M179.59,69.33h-1.22a2.52,2.52,0,0,1-2.52-2.52V46c-1-.44-1.28-1-1.28-1.42,0-1.34,2.29-2,4.41-2s4.41.61,4.41,2c0,.42-.23,1-1.28,1.42V66.81A2.52,2.52,0,0,1,179.59,69.33Zm-3.89-24.8a1.65,1.65,0,0,0,.88.49l.39.13V66.81a1.4,1.4,0,0,0,1.4,1.4h1.22a1.4,1.4,0,0,0,1.4-1.4V45.15l.39-.13a1.71,1.71,0,0,0,.89-.49c-.11-.24-1.23-.82-3.29-.82S175.8,44.29,175.7,44.53Z"/><path class="cls-1" d="M178.86,43.71a.57.57,0,0,1-.56-.5c0-.06-.67-5.67-3.82-6.88a.55.55,0,0,1-.32-.72.55.55,0,0,1,.72-.32c3.78,1.45,4.51,7.53,4.53,7.79a.55.55,0,0,1-.49.62Z"/><path class="cls-1" d="M180.09,43.37a.56.56,0,0,1-.56-.54c0-1.06-.15-10.41,3.62-11.85a.57.57,0,0,1,.73.32.57.57,0,0,1-.33.73c-2.57,1-3,8.11-2.9,10.77a.55.55,0,0,1-.55.57Z"/><path class="cls-1" d="M169.47,39.17a7.16,7.16,0,0,1-4.57-1.65,1.07,1.07,0,0,1-.38-.72,1,1,0,0,1,.24-.78,7.17,7.17,0,0,1,10.11-1l.82.68-.68.82a7.1,7.1,0,0,1-4.85,2.57A5.43,5.43,0,0,1,169.47,39.17Zm-3.81-2.48a6.05,6.05,0,0,0,8.45-.8,6.05,6.05,0,0,0-8.45.8Z"/><path class="cls-1" d="M187.84,33.94a7.11,7.11,0,0,1-4.67-1.74l-.81-.7.69-.8a7.2,7.2,0,0,1,10.13-.76,1.05,1.05,0,0,1,.11,1.5,7.09,7.09,0,0,1-4.9,2.48Zm-3.9-2.55a6.07,6.07,0,0,0,8.47-.64A6.07,6.07,0,0,0,183.94,31.39Z"/><path class="cls-1" d="M181.29,49.81h-1.8a.56.56,0,0,1-.56-.56.57.57,0,0,1,.56-.57h1.8a.57.57,0,0,1,.56.57A.56.56,0,0,1,181.29,49.81Z"/><path class="cls-1" d="M181.29,52.83h-1.8a.56.56,0,0,1,0-1.12h1.8a.56.56,0,1,1,0,1.12Z"/><path class="cls-1" d="M181.29,55.86h-1.8a.56.56,0,1,1,0-1.12h1.8a.56.56,0,1,1,0,1.12Z"/><path class="cls-1" d="M181.29,58.89h-1.8a.56.56,0,1,1,0-1.12h1.8a.56.56,0,1,1,0,1.12Z"/><path class="cls-1" d="M181.29,61.92h-1.8a.56.56,0,0,1,0-1.12h1.8a.56.56,0,0,1,0,1.12Z"/><path class="cls-1" d="M181.29,65h-1.8a.57.57,0,0,1,0-1.13h1.8a.57.57,0,0,1,0,1.13Z"/><path class="cls-1" d="M200.52,45.25a.57.57,0,0,1-.56-.55c0-1.06-.14-10.4,3.63-11.85a.56.56,0,0,1,.4,1c-2.58,1-3,8.11-2.91,10.77a.56.56,0,0,1-.54.58Z"/><path class="cls-1" d="M202.78,49.8H201a.56.56,0,0,1,0-1.12h1.8a.56.56,0,1,1,0,1.12Z"/><path class="cls-1" d="M201,69.32h-1.22a2.52,2.52,0,0,1-2.52-2.52V45.94c-1-.43-1.28-1-1.28-1.42,0-1.33,2.29-1.94,4.41-1.94s4.42.61,4.42,1.94c0,.42-.24,1-1.28,1.42V66.8A2.53,2.53,0,0,1,201,69.32Zm-3.89-24.8c0,.07.25.29.89.5l.38.12V66.8a1.4,1.4,0,0,0,1.4,1.4H201a1.4,1.4,0,0,0,1.4-1.4V45.14l.39-.12a1.69,1.69,0,0,0,.89-.5c-.11-.24-1.22-.82-3.29-.82S197.21,44.28,197.11,44.52Z"/><path class="cls-1" d="M202.78,52.83H201a.56.56,0,0,1,0-1.12h1.8a.56.56,0,1,1,0,1.12Z"/><path class="cls-1" d="M202.78,55.86H201a.56.56,0,0,1,0-1.12h1.8a.56.56,0,1,1,0,1.12Z"/><path class="cls-1" d="M202.78,58.89H201a.57.57,0,0,1-.56-.57.56.56,0,0,1,.56-.56h1.8a.56.56,0,0,1,.56.56A.57.57,0,0,1,202.78,58.89Z"/><path class="cls-1" d="M202.78,61.91H201a.56.56,0,0,1,0-1.12h1.8a.56.56,0,1,1,0,1.12Z"/><path class="cls-1" d="M202.78,64.94H201a.56.56,0,0,1,0-1.12h1.8a.56.56,0,1,1,0,1.12Z"/><path class="cls-1" d="M206.29,32.43a1,1,0,0,1-.49-.12l-.94-.48a1.08,1.08,0,0,1-.59-1.14l.17-1a1.07,1.07,0,0,1,.9-.91l1.29-.21a.74.74,0,0,1,.78.4l.6,1.16a1.11,1.11,0,0,1-.2,1.27l-.74.74A1.08,1.08,0,0,1,206.29,32.43Zm-.09-.92a.2.2,0,0,0,.23,0l.74-.74a.2.2,0,0,0,0-.23l-.55-1.06-1.17.18a.21.21,0,0,0-.17.17l-.16,1a.2.2,0,0,0,.1.2Z"/><path class="cls-1" d="M203.4,36.83a.76.76,0,0,1-.66-.39l-.62-1.15a1.09,1.09,0,0,1,.17-1.28l.72-.76a1.1,1.1,0,0,1,1.27-.23l.95.45a1.11,1.11,0,0,1,.61,1.13l-.14,1a1.09,1.09,0,0,1-.88.94l-1.29.23Zm.41-3a.2.2,0,0,0-.15.06l-.72.76a.2.2,0,0,0,0,.23l.57,1,1.17-.22a.18.18,0,0,0,.16-.16l.14-1.05a.2.2,0,0,0-.11-.2l-1-.45A.13.13,0,0,0,203.81,33.81Z"/><path class="cls-1" d="M203.35,33.51l-.15,0-1-.15a1.09,1.09,0,0,1-.93-.89L201,31.16a.74.74,0,0,1,.39-.78l1.15-.61a1.1,1.1,0,0,1,1.28.18l.75.73A1.1,1.1,0,0,1,204.8,32l-.47.94A1.08,1.08,0,0,1,203.35,33.51Zm-1.43-2.39.2,1.17a.2.2,0,0,0,.16.17l1,.15a.22.22,0,0,0,.21-.11l.46-.94a.18.18,0,0,0,0-.23l-.75-.74a.2.2,0,0,0-.23,0Z"/><path class="cls-1" d="M207.06,35.6a1.09,1.09,0,0,1-.77-.32l-.75-.73a1.1,1.1,0,0,1-.22-1.27l.47-.94a1.09,1.09,0,0,1,1.13-.6l1,.15a1.12,1.12,0,0,1,.93.9l.22,1.29a.75.75,0,0,1-.39.78l-1.15.61A1.2,1.2,0,0,1,207.06,35.6Zm-.29-3a.2.2,0,0,0-.18.11l-.46.94a.18.18,0,0,0,0,.23l.75.73a.21.21,0,0,0,.23,0l1-.56-.2-1.18a.19.19,0,0,0-.16-.16l-1-.15Z"/><path class="cls-3" d="M279,141h-.45c-.61,0-.65,1-.65,2.31l.05,61.32a3.12,3.12,0,0,1-1.4,2.61l-6.66,4.44a1.84,1.84,0,0,0-.5,2.55c1.41,2.06,3.73,2.38,5.53,2.38h10.81a6.31,6.31,0,0,0,5.21-2.32,1.81,1.81,0,0,0-.43-2.61l-6.65-4.44a3.14,3.14,0,0,1-1.4-2.61l0-61.32c0-1.27,0-2.31-.66-2.31Z"/><path class="cls-4" d="M290.53,211.63l-6.65-4.44a3.14,3.14,0,0,1-1.4-2.61l0-61.32c0-1.27,0-2.31-.66-2.31H280v75.61h5.75a6.31,6.31,0,0,0,5.21-2.32A1.81,1.81,0,0,0,290.53,211.63Z"/><path class="cls-1" d="M286.8,218.31H273.61c-2,0-6-1.82-6.27-5.31a3.06,3.06,0,0,1,1.36-2.78L275,206a2.53,2.53,0,0,0,1.15-2.15l0-61.31a4.38,4.38,0,0,1,.37-1.88,1.46,1.46,0,0,1,1.29-1h4.79a1.44,1.44,0,0,1,1.29,1,4.53,4.53,0,0,1,.38,1.88l0,61.31a2.57,2.57,0,0,0,1.15,2.15l6.34,4.23a3.09,3.09,0,0,1,1.37,2.78C292.79,216.49,288.84,218.31,286.8,218.31Zm-9-77.53c-.13,0-.54.61-.54,1.75l.05,61.31a3.71,3.71,0,0,1-1.65,3.09l-6.34,4.23a1.92,1.92,0,0,0-.88,1.75c.23,2.77,3.53,4.28,5.16,4.28H286.8c1.63,0,4.93-1.51,5.16-4.28a1.93,1.93,0,0,0-.87-1.75h0l-6.35-4.23a3.68,3.68,0,0,1-1.64-3.09l0-61.31c0-1.14-.42-1.72-.55-1.75Z"/><path class="cls-1" d="M279.17,202.42h-2a.56.56,0,1,1,0-1.12h2a.56.56,0,0,1,0,1.12Z"/><path class="cls-1" d="M279.17,196.79h-2a.56.56,0,1,1,0-1.12h2a.56.56,0,1,1,0,1.12Z"/><path class="cls-1" d="M279.17,191.16h-2a.56.56,0,1,1,0-1.12h2a.56.56,0,1,1,0,1.12Z"/><path class="cls-1" d="M279.17,185.53h-2a.56.56,0,1,1,0-1.12h2a.56.56,0,1,1,0,1.12Z"/><path class="cls-1" d="M279.17,179.89h-2a.56.56,0,1,1,0-1.12h2a.56.56,0,0,1,0,1.12Z"/><path class="cls-1" d="M279.17,174.26h-2a.56.56,0,0,1,0-1.12h2a.56.56,0,0,1,0,1.12Z"/><path class="cls-1" d="M279.17,168.63h-2a.56.56,0,0,1,0-1.12h2a.56.56,0,0,1,0,1.12Z"/><path class="cls-1" d="M279.17,163h-2a.56.56,0,0,1,0-1.12h2a.56.56,0,0,1,0,1.12Z"/><path class="cls-1" d="M279.17,157.37h-2a.56.56,0,0,1,0-1.12h2a.56.56,0,0,1,0,1.12Z"/><path class="cls-1" d="M279.17,151.74h-2a.57.57,0,0,1,0-1.13h2a.57.57,0,0,1,0,1.13Z"/><circle class="cls-2" cx="72.63" cy="150.38" r="4.56" transform="translate(-81.09 215.65) rotate(-87.23)"/><path class="cls-4" d="M58.54,158.38a1.93,1.93,0,1,1,2.36,1.36A1.92,1.92,0,0,1,58.54,158.38Z"/><circle class="cls-5" cx="73.77" cy="166.86" r="2.39" transform="translate(-93.74 239.16) rotate(-89.49)"/><path class="cls-8" d="M90.36,154.09a1.09,1.09,0,0,1,.78-1.35,1.1,1.1,0,1,1-.78,1.35Z"/><circle class="cls-12" cx="83.29" cy="140.23" r="1.96"/><circle class="cls-3" cx="62.76" cy="138.91" r="2.63" transform="translate(-48.38 34.59) rotate(-22.5)"/><path class="cls-1" d="M72.62,155.62a5.27,5.27,0,0,1-5.05-3.88A5.23,5.23,0,1,1,77.16,153,5.19,5.19,0,0,1,74,155.43,4.91,4.91,0,0,1,72.62,155.62Zm0-9.12a3.83,3.83,0,0,0-1,.13,3.89,3.89,0,0,0-.94,7.12,3.85,3.85,0,0,0,2.95.38,3.88,3.88,0,0,0-1-7.63Z"/><path class="cls-1" d="M60.4,160.37a2.49,2.49,0,0,1-2.4-1.85h0a2.45,2.45,0,0,1,.24-1.89,2.54,2.54,0,0,1,1.52-1.16,2.49,2.49,0,0,1,3,1.76,2.45,2.45,0,0,1-.24,1.89,2.52,2.52,0,0,1-2.16,1.25Zm-1.32-2.14a1.37,1.37,0,0,0,1.67,1,1.34,1.34,0,0,0,.83-.64,1.31,1.31,0,0,0,.14-1,1.36,1.36,0,0,0-1.67-1,1.36,1.36,0,0,0-1,1.67Z"/><path class="cls-1" d="M73.77,169.82a3,3,0,0,1-2.85-2.19A3,3,0,0,1,73,164a3,3,0,1,1,.77,5.81Zm0-4.79A1.83,1.83,0,0,0,72,167.34h0a1.83,1.83,0,0,0,.85,1.11,1.8,1.8,0,0,0,1.4.18,1.83,1.83,0,0,0-.48-3.6Z"/><path class="cls-1" d="M91.43,155.47a1.67,1.67,0,0,1-1.61-1.23h0A1.68,1.68,0,0,1,91,152.19a1.71,1.71,0,0,1,1.27.17,1.65,1.65,0,0,1,.78,1,1.71,1.71,0,0,1-.17,1.27,1.69,1.69,0,0,1-1,.78A2.18,2.18,0,0,1,91.43,155.47ZM90.9,154a.54.54,0,0,0,.67.38.53.53,0,0,0,.38-.67.49.49,0,0,0-.25-.33.54.54,0,0,0-.41-.05.51.51,0,0,0-.34.25.56.56,0,0,0,0,.42Z"/><path class="cls-1" d="M83.29,142.75a2.52,2.52,0,1,1,2.52-2.52A2.52,2.52,0,0,1,83.29,142.75Zm0-3.92a1.4,1.4,0,1,0,1.4,1.4A1.4,1.4,0,0,0,83.29,138.83Z"/><path class="cls-1" d="M62.76,142.1A3.2,3.2,0,1,1,66,138.91,3.2,3.2,0,0,1,62.76,142.1Zm0-5.26a2.07,2.07,0,1,0,2.07,2.07A2.07,2.07,0,0,0,62.76,136.84Z"/><rect class="cls-1" x="66.36" y="140.02" width="1.12" height="7.99" transform="translate(-81.2 86.76) rotate(-43.94)"/><rect class="cls-1" x="74.93" y="143.99" width="8.23" height="1.12" transform="translate(-77.12 92.07) rotate(-42.75)"/><rect class="cls-1" x="83.14" y="145.88" width="1.12" height="13.51" transform="translate(-81.09 208.73) rotate(-80.06)"/><rect class="cls-1" x="72.81" y="154.91" width="1.12" height="9.57" transform="translate(-13.02 6.65) rotate(-4.77)"/><rect class="cls-1" x="61.38" y="154.12" width="7.86" height="1.12" transform="translate(-73.38 60.05) rotate(-32.8)"/><rect class="cls-7" x="217.02" y="64.83" width="19.66" height="3.96" rx="1.98"/><path class="cls-9" d="M235,64.83h-8.06v4H235a1.7,1.7,0,0,0,1.69-1.7v-.57A1.7,1.7,0,0,0,235,64.83Z"/><path class="cls-6" d="M222.79,64.83V19.36a2.52,2.52,0,0,1,2.52-2.52h3.08a2.52,2.52,0,0,1,2.52,2.52V64.83Z"/><path class="cls-7" d="M228.39,16.84h-1.53v48h4V19.36A2.52,2.52,0,0,0,228.39,16.84Z"/><path class="cls-1" d="M231.47,65.39h-9.24v-46a3.08,3.08,0,0,1,3.08-3.08h3.08a3.08,3.08,0,0,1,3.08,3.08Zm-8.12-1.12h7V19.36a2,2,0,0,0-2-2h-3.08a2,2,0,0,0-2,2Z"/><path class="cls-1" d="M235,69.36H218.71a2.26,2.26,0,0,1-2.25-2.26v-.57a2.26,2.26,0,0,1,2.25-2.26H235a2.26,2.26,0,0,1,2.25,2.26v.57A2.26,2.26,0,0,1,235,69.36Zm-16.28-4a1.14,1.14,0,0,0-1.13,1.14v.57a1.14,1.14,0,0,0,1.13,1.14H235a1.14,1.14,0,0,0,1.13-1.14v-.57A1.14,1.14,0,0,0,235,65.39Z"/><path class="cls-1" d="M226.85,27.62h-4.06a.56.56,0,0,1,0-1.12h4.06a.56.56,0,1,1,0,1.12Z"/><path class="cls-1" d="M226.85,33.37h-4.06a.56.56,0,0,1,0-1.12h4.06a.56.56,0,1,1,0,1.12Z"/><path class="cls-1" d="M226.85,39.11h-4.06a.56.56,0,0,1,0-1.12h4.06a.56.56,0,1,1,0,1.12Z"/><path class="cls-1" d="M226.85,44.86h-4.06a.56.56,0,0,1,0-1.12h4.06a.56.56,0,1,1,0,1.12Z"/><path class="cls-1" d="M226.85,50.61h-4.06a.56.56,0,0,1,0-1.12h4.06a.56.56,0,1,1,0,1.12Z"/><path class="cls-1" d="M226.85,56.36h-4.06a.57.57,0,0,1,0-1.13h4.06a.57.57,0,0,1,0,1.13Z"/><path class="cls-7" d="M305.12,177.17h0a1.79,1.79,0,0,1,1.79,1.79v8.16a0,0,0,0,1,0,0h-3.57a0,0,0,0,1,0,0V179A1.79,1.79,0,0,1,305.12,177.17Z"/><path class="cls-6" d="M300.71,183.69h8.82a0,0,0,0,1,0,0v18a4.41,4.41,0,0,1-4.41,4.41h0a4.41,4.41,0,0,1-4.41-4.41v-18A0,0,0,0,1,300.71,183.69Z"/><path class="cls-7" d="M305.12,183.69v22.4h3a1.4,1.4,0,0,0,1.39-1.4v-21Z"/><path class="cls-3" d="M304.66,187.44h.91a3.06,3.06,0,0,1,3.06,3.06v11.28a3.51,3.51,0,0,1-3.51,3.51h0a3.51,3.51,0,0,1-3.51-3.51V190.5A3.06,3.06,0,0,1,304.66,187.44Z"/><path class="cls-11" d="M306.39,177.17h-1.26v9.94h1.78v-9.42A.52.52,0,0,0,306.39,177.17Z"/><path class="cls-4" d="M307.61,187.44h-2.49v17.85h2.34a1.14,1.14,0,0,0,1.17-1.11V188.41A1,1,0,0,0,307.61,187.44Z"/><path class="cls-7" d="M306.67,209.16,305.3,217a.18.18,0,0,1-.36,0l-1.37-7.81,0-.06-1.39-2.71a.2.2,0,0,1,.16-.3h5.6a.2.2,0,0,1,.16.3l-1.39,2.71Z"/><path class="cls-11" d="M307.92,206.09h-2.78v11a.19.19,0,0,0,.16-.16l1.37-7.81,0-.06,1.39-2.71A.2.2,0,0,0,307.92,206.09Z"/><path class="cls-1" d="M308.13,206.53h-6a1.85,1.85,0,0,1-1.84-1.84V183.25H310v21.44A1.85,1.85,0,0,1,308.13,206.53Zm-7-22.4v20.56a1,1,0,0,0,1,.95h6a1,1,0,0,0,1-.95V184.13Z"/><path class="cls-1" d="M310.17,177.65h-10.1a.57.57,0,1,1,0-1.13h10.1a.57.57,0,1,1,0,1.13Zm0-.43h0Z"/><path class="cls-1" d="M308.49,187.71h-6.74a.38.38,0,1,1,0-.75h6.74a.38.38,0,1,1,0,.75Zm0-.28Z"/><path class="cls-1" d="M305.12,217.58a.61.61,0,0,1-.61-.53l-1.37-7.78-1.37-2.67a.67.67,0,0,1,0-.66.64.64,0,0,1,.53-.3h5.6a.64.64,0,0,1,.53.3.67.67,0,0,1,0,.66l-1.37,2.67-1.37,7.78a.61.61,0,0,1-.61.53Zm-2.39-11.05,1.21,2.37a.6.6,0,0,1,.06.19l1.12,6.34,1.12-6.34a.6.6,0,0,1,.06-.19l1.21-2.37Zm.4,2.71Z"/><path class="cls-1" d="M307.35,187.56h-4.46v-9.87a1,1,0,0,1,1-1h2.54a1,1,0,0,1,1,1Zm-3.57-.89h2.68v-9a.07.07,0,0,0-.07-.07h-2.54a.07.07,0,0,0-.07.07Z"/><path class="cls-1" d="M304.05,190.87h-3.34a.44.44,0,0,1-.44-.44.44.44,0,0,1,.44-.44h3.34a.44.44,0,0,1,.44.44A.44.44,0,0,1,304.05,190.87Z"/><path class="cls-1" d="M304.05,194.49h-3.34a.44.44,0,0,1-.44-.44.44.44,0,0,1,.44-.44h3.34a.44.44,0,0,1,.44.44A.44.44,0,0,1,304.05,194.49Z"/><path class="cls-1" d="M304.05,198.11h-3.34a.45.45,0,0,1,0-.89h3.34a.45.45,0,0,1,0,.89Z"/><path class="cls-1" d="M304.05,201.72h-3.34a.44.44,0,0,1-.44-.44.44.44,0,0,1,.44-.44h3.34a.44.44,0,0,1,.44.44A.44.44,0,0,1,304.05,201.72Z"/><path class="cls-1" d="M312.07,184h-13.9a.65.65,0,1,1,0-1.29h13.9a.65.65,0,1,1,0,1.29Zm0-.58Z"/><path class="cls-6" d="M71.39,40.11V69h-.65a2.21,2.21,0,0,1-2.21-2.21v-24c-.89-.29-1.44-.7-1.44-1.16C67.09,40.82,69,40.12,71.39,40.11Z"/><path class="cls-7" d="M71.12,40.11V69h.69a2.27,2.27,0,0,0,2.33-2.21v-24c.94-.29,1.53-.7,1.53-1.16C75.67,40.82,73.64,40.12,71.12,40.11Z"/><path class="cls-2" d="M69,46.4V66.13A1.76,1.76,0,0,0,70.61,68h1a1.76,1.76,0,0,0,1.63-1.87V46.4Z"/><path class="cls-8" d="M71.12,46.4V68h.5a1.76,1.76,0,0,0,1.63-1.87V46.4Z"/><path class="cls-6" d="M72.49,55.35A.46.46,0,0,1,72,54.9V49.35a.45.45,0,0,1,.45-.45.45.45,0,0,1,.45.45V54.9A.45.45,0,0,1,72.49,55.35Z"/><path class="cls-6" d="M81.62,40.11V69H81a2.21,2.21,0,0,1-2.22-2.21v-24c-.88-.29-1.44-.7-1.44-1.16C77.31,40.82,79.24,40.12,81.62,40.11Z"/><path class="cls-7" d="M81.37,40.11V69h.69a2.28,2.28,0,0,0,2.34-2.21v-24c.93-.29,1.52-.7,1.52-1.16C85.92,40.82,83.89,40.12,81.37,40.11Z"/><path class="cls-3" d="M79.23,47.63v18.5A1.76,1.76,0,0,0,80.86,68h1a1.76,1.76,0,0,0,1.63-1.87V47.63Z"/><path class="cls-4" d="M81.37,47.63V68h.5a1.76,1.76,0,0,0,1.63-1.87V47.63Z"/><path class="cls-6" d="M82.78,55.35a.45.45,0,0,1-.45-.45V49.35a.45.45,0,1,1,.89,0V54.9A.45.45,0,0,1,82.78,55.35Z"/><path class="cls-6" d="M91.87,40.11V69h-.65A2.21,2.21,0,0,1,89,66.78v-24c-.88-.29-1.44-.7-1.44-1.16C87.56,40.82,89.49,40.12,91.87,40.11Z"/><path class="cls-7" d="M91.62,40.11V69h.69a2.28,2.28,0,0,0,2.34-2.21v-24c.93-.29,1.52-.7,1.52-1.16C96.17,40.82,94.14,40.12,91.62,40.11Z"/><path class="cls-5" d="M89.48,45v21.1A1.76,1.76,0,0,0,91.11,68h1a1.76,1.76,0,0,0,1.63-1.87V45Z"/><path class="cls-12" d="M91.62,45V68h.5a1.76,1.76,0,0,0,1.63-1.87V45Z"/><path class="cls-6" d="M93.06,55.35a.45.45,0,0,1-.45-.45V49.35a.45.45,0,1,1,.9,0V54.9A.45.45,0,0,1,93.06,55.35Z"/><path class="cls-1" d="M71.8,69.55H70.43a2.77,2.77,0,0,1-2.77-2.77V43.22c-1.18-.47-1.44-1.09-1.44-1.55,0-1.45,2.54-2.12,4.9-2.12s4.9.67,4.9,2.12c0,.46-.26,1.08-1.44,1.55V66.78A2.78,2.78,0,0,1,71.8,69.55Zm-.68-28.88c-2.48,0-3.78.74-3.78,1,0,0,.19.35,1,.63l.39.12V66.78a1.65,1.65,0,0,0,1.65,1.65H71.8a1.65,1.65,0,0,0,1.65-1.65V42.42l.39-.12c.86-.28,1.06-.58,1.06-.63C74.9,41.41,73.6,40.67,71.12,40.67Z"/><path class="cls-1" d="M82.05,69.55H80.68a2.77,2.77,0,0,1-2.77-2.77V43.22c-1.18-.47-1.44-1.09-1.44-1.55,0-1.45,2.54-2.12,4.9-2.12s4.9.67,4.9,2.12c0,.46-.26,1.08-1.44,1.55V66.78A2.78,2.78,0,0,1,82.05,69.55Zm-.68-28.88c-2.48,0-3.78.74-3.78,1,0,0,.19.35,1,.63l.39.12V66.78a1.65,1.65,0,0,0,1.65,1.65h1.37a1.65,1.65,0,0,0,1.65-1.65V42.42l.39-.12c.86-.28,1.06-.58,1.06-.63C85.15,41.41,83.85,40.67,81.37,40.67Z"/><path class="cls-1" d="M92.31,69.55H90.93a2.77,2.77,0,0,1-2.77-2.77V43.22c-1.18-.47-1.44-1.09-1.44-1.55,0-1.45,2.54-2.12,4.9-2.12s4.9.67,4.9,2.12c0,.46-.26,1.08-1.44,1.55V66.78A2.78,2.78,0,0,1,92.31,69.55Zm-.69-28.88c-2.48,0-3.78.74-3.78,1,0,0,.19.35,1,.63l.39.12V66.78a1.65,1.65,0,0,0,1.65,1.65h1.38A1.66,1.66,0,0,0,94,66.78V42.42l.38-.12c.86-.28,1.06-.58,1.06-.63C95.4,41.41,94.1,40.67,91.62,40.67Z"/><circle class="cls-6" cx="143.68" cy="52.73" r="0.3"/><path class="cls-7" d="M162.05,58.87l-8.68-12.7a5.25,5.25,0,0,0-.73-.87l-.07-17.72a1.35,1.35,0,0,0,1-1.42V25.8a1.29,1.29,0,0,0-1.1-1.41l-2.49,0V68.8l8.68-.06C162.58,68.71,164.67,62.7,162.05,58.87Z"/><path class="cls-6" d="M137.92,58.87l8.63-12.7a5.79,5.79,0,0,1,.73-.87l.07-17.72a1.34,1.34,0,0,1-1-1.42V25.8a1.28,1.28,0,0,1,1.09-1.41l2.48,0V68.8l-8.64-.06C137.4,68.71,135.32,62.7,137.92,58.87Z"/><path class="cls-5" d="M160.74,59.58l-6.14-9.22h-9.36l-6,8.93c-2.35,3.32-.73,8.45,2.84,8.45h15.64C161.31,67.74,162.92,62.92,160.74,59.58Z"/><path class="cls-12" d="M160.74,59.58l-6.18-9.22H150V67.74h7.76C161.31,67.74,162.93,62.92,160.74,59.58Z"/><path class="cls-5" d="M152.24,57.26a1.3,1.3,0,1,1,1.29,1.29A1.3,1.3,0,0,1,152.24,57.26Z"/><circle class="cls-12" cx="148.5" cy="53.37" r="0.93"/><path class="cls-12" d="M144.38,55.84a.58.58,0,1,1,.58.58A.58.58,0,0,1,144.38,55.84Z"/><path class="cls-12" d="M148.39,47.61a1.16,1.16,0,1,1,1.16,1.15A1.15,1.15,0,0,1,148.39,47.61Z"/><circle class="cls-12" cx="150.1" cy="40.47" r="0.3"/><circle class="cls-12" cx="148.85" cy="37.71" r="0.56"/><path class="cls-6" d="M159.32,60.21a.46.46,0,0,1-.38-.2l-4.48-6.67a.45.45,0,1,1,.74-.5l4.49,6.67a.45.45,0,0,1-.12.62A.49.49,0,0,1,159.32,60.21Z"/><circle class="cls-6" cx="156.27" cy="60.84" r="0.51"/><path class="cls-1" d="M158.5,69.31H141.34a4.79,4.79,0,0,1-4.2-2.81,7.8,7.8,0,0,1,.33-7.83l8.58-12.77a7.11,7.11,0,0,1,.64-.79V28a2,2,0,0,1-1-1.77v-.37a1.79,1.79,0,0,1,1.6-1.93h5.2a1.79,1.79,0,0,1,1.6,1.93v.37a2,2,0,0,1-1,1.77V45.11a6.13,6.13,0,0,1,.64.79l8.58,12.77a7.77,7.77,0,0,1,.33,7.83A4.79,4.79,0,0,1,158.5,69.31ZM147.32,24.92c-.27,0-.57.37-.57.9v.37c0,.51.27.86.52.9l.45.06V45.54l-.16.15a4.21,4.21,0,0,0-.65.79l-8.59,12.76A6.78,6.78,0,0,0,138,66a3.81,3.81,0,0,0,3.3,2.26H158.5A3.81,3.81,0,0,0,161.8,66a6.78,6.78,0,0,0-.28-6.78h0l-8.58-12.76a4.69,4.69,0,0,0-.66-.79l-.15-.15V27.15l.44-.06a.86.86,0,0,0,.53-.9v-.37c0-.53-.31-.9-.58-.9Z"/><path class="cls-6" d="M118.29,60.91l8.64-9.78a4.54,4.54,0,0,1,.72-.67l.07-13.64a1.09,1.09,0,0,1-1-1.09v-.28a1.08,1.08,0,0,1,1.09-1.08h2.48V68.55l-8.64,0A4.57,4.57,0,0,1,118.29,60.91Z"/><path class="cls-7" d="M142.37,60.91l-8.7-9.78a5.09,5.09,0,0,0-.73-.67l-.07-13.64a1.09,1.09,0,0,0,1-1.09v-.28a1.09,1.09,0,0,0-1.11-1.08h-2.49V68.55l8.7,0A4.57,4.57,0,0,0,142.37,60.91Z"/><path class="cls-3" d="M141.42,62.25l-6.75-7.67h-9l-6.32,7.36c-1.64,2.13-.17,5.57,3.29,5.57H137.7C141.15,67.51,142.65,64.3,141.42,62.25Z"/><path class="cls-4" d="M141.42,62.25l-6.77-7.67h-4.41V67.51h7.45C141.15,67.51,142.65,64.3,141.42,62.25Z"/><path class="cls-4" d="M128.21,56.18A.83.83,0,1,1,129,57,.82.82,0,0,1,128.21,56.18Z"/><circle class="cls-3" cx="132.31" cy="54.05" r="0.82"/><path class="cls-4" d="M129.75,49.34a.55.55,0,0,1,.56-.55.54.54,0,0,1,.55.55.55.55,0,0,1-.55.56A.56.56,0,0,1,129.75,49.34Z"/><circle class="cls-4" cx="131.51" cy="46.37" r="0.56"/><circle class="cls-4" cx="129.34" cy="42.79" r="0.56"/><path class="cls-6" d="M139.25,62.08a.46.46,0,0,1-.34-.15l-4.37-5.08a.46.46,0,0,1,.05-.64.45.45,0,0,1,.63,0l4.37,5.08a.47.47,0,0,1,0,.64A.47.47,0,0,1,139.25,62.08Z"/><path class="cls-6" d="M135.8,62.67a.52.52,0,1,1,.51.52A.51.51,0,0,1,135.8,62.67Z"/><path class="cls-1" d="M138.82,69.06H121.65a5.09,5.09,0,0,1-3.83-8.42l8.59-9.83a4.61,4.61,0,0,1,.59-.58v-13a1.59,1.59,0,0,1-1-1.47v-.28a1.6,1.6,0,0,1,1.61-1.6h5.2a1.6,1.6,0,0,1,1.6,1.6v.28a1.59,1.59,0,0,1-1,1.47v13a4.61,4.61,0,0,1,.59.58l8.59,9.83a5.08,5.08,0,0,1-3.83,8.42ZM127.64,34.89a.58.58,0,0,0-.58.58v.28a.57.57,0,0,0,.51.57l.46,0V50.74l-.21.15a4,4,0,0,0-.64.59l-8.58,9.83A4,4,0,0,0,121.65,68h17.17a4,4,0,0,0,3.05-6.72l-8.58-9.83a4,4,0,0,0-.64-.59l-.21-.15V36.37l.46,0a.57.57,0,0,0,.51-.57v-.28a.58.58,0,0,0-.57-.58Z"/><path class="cls-6" d="M157.2,161.12c0-1.39-3-2.52-6.67-2.52s-6.67,1.13-6.67,2.52c0,.88,1.2,1.66,3,2.11v2.51a17,17,0,0,0-3.52-1.19V153.73c1.82-.45,3-1.23,3-2.11,0-1.39-3-2.52-6.67-2.52s-6.67,1.13-6.67,2.52c0,.88,1.2,1.66,3,2.11v10.82a16.88,16.88,0,0,0-3.53,1.2v-2.52c1.81-.45,3-1.23,3-2.11,0-1.39-3-2.52-6.67-2.52s-6.67,1.13-6.67,2.52c0,.88,1.2,1.66,3,2.11v9a17,17,0,1,0,29,0v-9C156,162.78,157.2,162,157.2,161.12Z"/><path class="cls-7" d="M157.2,161.12c0-1.39-3-2.52-6.67-2.52s-6.67,1.13-6.67,2.52c0,.88,1.2,1.66,3,2.11v2.51a17,17,0,0,0-3.52-1.19V153.73c1.82-.45,3-1.23,3-2.11,0-1.38-2.92-2.5-6.54-2.52v49.08a17,17,0,0,0,14.34-26v-9C156,162.78,157.2,162,157.2,161.12Z"/><path class="cls-2" d="M124.52,181.52a15.09,15.09,0,0,0,30.17,0Z"/><path class="cls-8" d="M139.84,181.52v14.95a15.13,15.13,0,0,0,15-14.95Z"/><circle class="cls-8" cx="133.26" cy="183.28" r="1.83"/><circle class="cls-8" cx="141.86" cy="177.24" r="1.22"/><circle class="cls-8" cx="136.29" cy="171.99" r="1.2"/><circle class="cls-2" cx="145.64" cy="170.2" r="0.96"/><circle class="cls-8" cx="137.88" cy="165.6" r="0.88"/><circle class="cls-8" cx="151.85" cy="175.45" r="0.58"/><circle class="cls-2" cx="129.44" cy="174.87" r="0.58"/><circle class="cls-2" cx="128.03" cy="167" r="0.51"/><path class="cls-2" d="M150.88,164.69a.39.39,0,1,1,.39.39A.38.38,0,0,1,150.88,164.69Z"/><path class="cls-1" d="M139.71,198.74a17.57,17.57,0,0,1-15-26.65v-8.43c-1.93-.56-3-1.47-3-2.54,0-2,3.73-3.08,7.24-3.08,2.65,0,5.42.62,6.62,1.78v-5.66c-1.93-.56-3-1.47-3-2.54,0-2,3.72-3.08,7.23-3.08s7.23,1.08,7.23,3.08c0,1.07-1.09,2-3,2.54v5.65c1.21-1.16,4-1.77,6.61-1.77,3.5,0,7.23,1.08,7.23,3.08,0,1.07-1.1,2-3,2.54v8.41a17.57,17.57,0,0,1-15,26.67Zm-10.83-39.58c-3.73,0-6.11,1.16-6.11,2,0,.44.81,1.12,2.59,1.56l.43.11v9.62l-.09.13a16.45,16.45,0,1,0,28,0l-.08-.14v-9.59l.42-.11c1.78-.44,2.6-1.12,2.6-1.56,0-.8-2.38-2-6.11-2s-6.11,1.16-6.11,2c0,.44.81,1.12,2.59,1.56l.43.11v3.83l-.8-.37a16.41,16.41,0,0,0-3.4-1.15l-.44-.09V153.29l.42-.11c1.79-.44,2.6-1.12,2.6-1.56,0-.8-2.38-2-6.11-2s-6.11,1.16-6.11,2c0,.44.81,1.12,2.59,1.56l.43.11V165l-.44.09a16.41,16.41,0,0,0-3.42,1.16l-.79.37v-3.84l.42-.11c1.78-.44,2.6-1.12,2.6-1.56C135,160.32,132.61,159.16,128.88,159.16Zm4.21,4.5v1.23a16.93,16.93,0,0,1,2.41-.78v-1.69A5.7,5.7,0,0,1,133.09,163.66Zm10.83.45a16.81,16.81,0,0,1,2.4.78v-1.23a5.72,5.72,0,0,1-2.4-1.23Z"/><rect class="cls-13" x="42.3" y="101.65" width="19.24" height="28.63" rx="9.62" transform="translate(103.85 231.93) rotate(-180)"/><path class="cls-22" d="M56.6,101.65H52v28.63H56.6a5,5,0,0,0,4.95-5V106.6A5,5,0,0,0,56.6,101.65Z"/><rect class="cls-5" x="45.01" y="97.68" width="13.84" height="3.97" rx="1.99" transform="translate(103.85 199.32) rotate(-180)"/><path class="cls-12" d="M57.67,97.68H51.91v4h5.76a1.18,1.18,0,0,0,1.18-1.18V98.85A1.17,1.17,0,0,0,57.67,97.68Z"/><rect class="cls-7" x="45.72" y="115.05" width="12.41" height="10.98" rx="5.49" transform="translate(103.85 241.09) rotate(-180)"/><path class="cls-9" d="M56.24,115.05H52v11h4.25a1.89,1.89,0,0,0,1.89-1.88v-7.21A1.89,1.89,0,0,0,56.24,115.05Z"/><rect class="cls-13" x="20.3" y="108.91" width="19.24" height="21.37" rx="9.62" transform="translate(59.84 239.18) rotate(180)"/><path class="cls-22" d="M34.47,108.91H30v21.37h4.47a5,5,0,0,0,5.07-5V113.86A5,5,0,0,0,34.47,108.91Z"/><rect class="cls-3" x="23" y="104.93" width="13.84" height="3.97" rx="1.99" transform="translate(59.84 213.84) rotate(-180)"/><path class="cls-4" d="M35.67,104.93H30v4h5.67a1.18,1.18,0,0,0,1.17-1.18v-1.62A1.18,1.18,0,0,0,35.67,104.93Z"/><rect class="cls-7" x="23" y="115.96" width="13.84" height="9.16" rx="4.58" transform="translate(59.84 241.09) rotate(180)"/><path class="cls-9" d="M35,116H30v9.16h5a1.81,1.81,0,0,0,1.82-1.81v-5.53A1.82,1.82,0,0,0,35,116Z"/><path class="cls-1" d="M56.6,130.84H47.26a5.52,5.52,0,0,1-5.52-5.51V106.6a5.52,5.52,0,0,1,5.52-5.51H56.6a5.52,5.52,0,0,1,5.51,5.51v18.73A5.52,5.52,0,0,1,56.6,130.84Zm-9.34-28.63a4.39,4.39,0,0,0-4.39,4.39v18.73a4.39,4.39,0,0,0,4.39,4.39H56.6A4.4,4.4,0,0,0,61,125.33V106.6a4.4,4.4,0,0,0-4.39-4.39Z"/><path class="cls-1" d="M57.67,102.21H46.18a1.74,1.74,0,0,1-1.74-1.74V98.85a1.73,1.73,0,0,1,1.74-1.73H57.67a1.73,1.73,0,0,1,1.74,1.73v1.62A1.74,1.74,0,0,1,57.67,102.21Zm-11.49-4a.61.61,0,0,0-.61.61v1.62a.61.61,0,0,0,.61.62H57.67a.62.62,0,0,0,.62-.62V98.85a.61.61,0,0,0-.62-.61Z"/><path class="cls-1" d="M34.59,130.84H25.25a5.51,5.51,0,0,1-5.51-5.51V113.86a5.52,5.52,0,0,1,5.51-5.52h9.34a5.52,5.52,0,0,1,5.51,5.52v11.47A5.51,5.51,0,0,1,34.59,130.84Zm-9.34-21.37a4.4,4.4,0,0,0-4.39,4.39v11.47a4.4,4.4,0,0,0,4.39,4.39h9.34A4.4,4.4,0,0,0,39,125.33V113.86a4.4,4.4,0,0,0-4.39-4.39Z"/><path class="cls-1" d="M35.67,109.47H24.17a1.74,1.74,0,0,1-1.73-1.74v-1.62a1.74,1.74,0,0,1,1.73-1.74h11.5a1.74,1.74,0,0,1,1.73,1.74v1.62A1.74,1.74,0,0,1,35.67,109.47Zm-11.5-4a.61.61,0,0,0-.61.62v1.62a.61.61,0,0,0,.61.61h11.5a.61.61,0,0,0,.61-.61v-1.62a.62.62,0,0,0-.61-.62Z"/><path class="cls-6" d="M103.26,102.72v19.75A7.55,7.55,0,0,1,95.71,130H84.35a7.56,7.56,0,0,1-7.56-7.56V102.74a1.34,1.34,0,0,0-1.34-1.35h0a2.75,2.75,0,0,1-2.76-2.76v0a2.75,2.75,0,0,1,2.76-2.76h29.43a2.75,2.75,0,0,1,2.76,2.76h0a2.76,2.76,0,0,1-2.72,2.76h-.33A1.35,1.35,0,0,0,103.26,102.72Z"/><path class="cls-7" d="M104.88,95.84H90.21V130h5.5a7.55,7.55,0,0,0,7.55-7.56V102.72a1.35,1.35,0,0,1,1.33-1.35h.33a2.76,2.76,0,0,0,2.72-2.76h0A2.75,2.75,0,0,0,104.88,95.84Z"/><path class="cls-3" d="M78.4,111.05v10.57A6.64,6.64,0,0,0,85,128.26H95a6.63,6.63,0,0,0,6.63-6.64V111.05Z"/><path class="cls-4" d="M90.21,111.05v17.21H95a6.66,6.66,0,0,0,6.69-6.64V111.05Z"/><path class="cls-6" d="M97.46,126.57a.44.44,0,0,1-.38-.21.45.45,0,0,1,.14-.62,5.59,5.59,0,0,0,2.73-5.22v-3.77a.45.45,0,0,1,.45-.45.45.45,0,0,1,.45.45v3.77a6.5,6.5,0,0,1-3.15,6A.42.42,0,0,1,97.46,126.57Z"/><path class="cls-1" d="M95.71,130.59H84.35a8.13,8.13,0,0,1-8.12-8.12V102.74a.78.78,0,0,0-.78-.79,3.32,3.32,0,0,1-3.32-3.32v0a3.32,3.32,0,0,1,3.32-3.32h29.43a3.31,3.31,0,0,1,3.32,3.32,3.33,3.33,0,0,1-3.27,3.33h-.33a.8.8,0,0,0-.78.79v19.75A8.12,8.12,0,0,1,95.71,130.59ZM75.45,96.4a2.21,2.21,0,0,0-2.2,2.2v0a2.21,2.21,0,0,0,2.2,2.2,1.91,1.91,0,0,1,1.9,1.91v19.73a7,7,0,0,0,7,7H95.71a7,7,0,0,0,7-7V102.72a1.93,1.93,0,0,1,1.89-1.91h.32a2.21,2.21,0,0,0,0-4.41Z"/><path class="cls-1" d="M93.77,110.72a.69.69,0,0,1-.24,0,.56.56,0,0,1-.27-.75l9-19.77a.56.56,0,0,1,.74-.28.57.57,0,0,1,.28.74l-9,19.78A.58.58,0,0,1,93.77,110.72Z"/><path class="cls-1" d="M87,100.83H82.29a.56.56,0,0,1,0-1.12H87a.56.56,0,0,1,0,1.12Z"/><path class="cls-1" d="M87,105.31H82.29a.56.56,0,0,1,0-1.12H87a.56.56,0,0,1,0,1.12Z"/><path class="cls-1" d="M87,109.79H82.29a.56.56,0,0,1,0-1.12H87a.56.56,0,0,1,0,1.12Z"/><path class="cls-1" d="M87,114.27H82.29a.56.56,0,1,1,0-1.12H87a.56.56,0,0,1,0,1.12Z"/><path class="cls-1" d="M87,118.75H82.29a.56.56,0,0,1,0-1.12H87a.56.56,0,0,1,0,1.12Z"/><path class="cls-1" d="M87,123.23H82.29a.56.56,0,0,1,0-1.12H87a.56.56,0,0,1,0,1.12Z"/><path class="cls-6" d="M57.95,192.32h0a4.54,4.54,0,0,1,4.54,4.54V197a0,0,0,0,1,0,0H53.41a0,0,0,0,1,0,0v-.17A4.54,4.54,0,0,1,57.95,192.32Z" transform="translate(208.54 330.98) rotate(148.73)"/><path class="cls-23" d="M57.95,192.58h0a4,4,0,0,1,4,4v.15a0,0,0,0,1,0,0H53.91a0,0,0,0,1,0,0v-.15A4,4,0,0,1,57.95,192.58Z" transform="translate(208.54 330.98) rotate(148.73)"/><path class="cls-24" d="M56.79,192.93,53.33,195l1,1.68a2.3,2.3,0,0,0,2.32,1.11l2.22-1.41Z"/><path class="cls-24" d="M61.48,198.06h0a2.3,2.3,0,0,1,2.3,2.3v1.94a0,0,0,0,1,0,0H59.17a0,0,0,0,1,0,0v-1.94A2.3,2.3,0,0,1,61.48,198.06Z" transform="translate(217.94 339.37) rotate(148.73)"/><path class="cls-13" d="M60.5,198.55l-1.94,1.18,1.53,2.51a1.3,1.3,0,0,0,1.79.43l.79-.48Z"/><path class="cls-1" d="M55.71,200a2.73,2.73,0,0,1-2.36-1.33l-2.56-4.2L61,188.28l2.56,4.2a2.76,2.76,0,0,1-.93,3.79l-5.45,3.31A2.73,2.73,0,0,1,55.71,200ZM53.19,195l1.65,2.7a1,1,0,0,0,1.38.34l5.45-3.31a1,1,0,0,0,.46-.62,1,1,0,0,0-.12-.76l-1.65-2.71Z"/><path class="cls-1" d="M60.86,204.49a2.6,2.6,0,0,1-2.23-1.25l-2.49-4.09,6.74-4.09,2.48,4.09a2.6,2.6,0,0,1-.87,3.58l-2.28,1.38A2.56,2.56,0,0,1,60.86,204.49Zm-2.31-4.75,1.57,2.59a.87.87,0,0,0,1.18.29h0l2.28-1.38a.87.87,0,0,0,.29-1.18l-1.58-2.6Z"/><path class="cls-6" d="M26.87,143.94h10.3a0,0,0,0,1,0,0v9.64A5.15,5.15,0,0,1,32,158.73h0a5.15,5.15,0,0,1-5.15-5.15v-9.64a0,0,0,0,1,0,0Z" transform="translate(137.95 264.05) rotate(148.73)"/><rect class="cls-6" x="38.3" y="155.68" width="15.84" height="38.78" rx="7.92" transform="matrix(-0.85, 0.52, -0.52, -0.85, 176.85, 300.46)"/><path class="cls-7" d="M28.94,145.34h6.17a0,0,0,0,1,0,0v8.89A3.08,3.08,0,0,1,32,157.32h0a3.08,3.08,0,0,1-3.08-3.08v-8.89a0,0,0,0,1,0,0Z" transform="translate(137.95 264.05) rotate(148.73)"/><path class="cls-25" d="M28.89,146.24l-1.49.9A1.34,1.34,0,0,0,27,149l5.51,9.11,2.7-1.64Z"/><rect class="cls-7" x="39.87" y="157.45" width="12.7" height="35.25" rx="6.35" transform="translate(176.85 300.46) rotate(148.62)"/><path class="cls-25" d="M37,160l-3.91,2.38a1.74,1.74,0,0,0-.61,2.37L49.09,192a1.75,1.75,0,0,0,2.4.56l3.89-2.4Z"/><path class="cls-1" d="M23.53,250.86H86a3.4,3.4,0,0,0,3.4-3.39h0a3.4,3.4,0,0,0-3.4-3.4H23.53a3.4,3.4,0,0,0-3.39,3.4h0A3.39,3.39,0,0,0,23.53,250.86Z"/><path class="cls-1" d="M27.66,210.58H75.61A3.4,3.4,0,0,1,79,214h0a3.4,3.4,0,0,1-3.4,3.39H27.66Z"/><path class="cls-1" d="M50.21,196.24a3.43,3.43,0,0,1-.71-.08,3,3,0,0,1-1.83-1.35l-18.24-30a2.94,2.94,0,0,1-.35-2.24,3,3,0,0,1,1.34-1.83l10.41-6.32a3,3,0,0,1,4.07,1l18.24,30a2.93,2.93,0,0,1,.35,2.24,3,3,0,0,1-1.34,1.83l-10.41,6.32A3,3,0,0,1,50.21,196.24Zm-7.85-40.53a1.29,1.29,0,0,0-.63.17l-10.4,6.32a1.23,1.23,0,0,0-.55.75,1.19,1.19,0,0,0,.14.92l18.25,30a1.2,1.2,0,0,0,1.66.4L61.24,188a1.17,1.17,0,0,0,.55-.75,1.25,1.25,0,0,0-.14-.91l-18.25-30a1.2,1.2,0,0,0-.75-.55A1.36,1.36,0,0,0,42.36,155.71Z"/><path class="cls-1" d="M27.09,248.34a.87.87,0,0,1-.87-.87V177.63a.88.88,0,1,1,1.75,0v69.84A.88.88,0,0,1,27.09,248.34Z"/><path class="cls-1" d="M31,178.36H27.28a.88.88,0,0,1,0-1.75H31a.88.88,0,0,1,0,1.75Z"/><path class="cls-1" d="M31.44,162.14l-7.65-12.6a2.83,2.83,0,0,1-.34-2.16,2.89,2.89,0,0,1,1.3-1.77l5.69-3.46a2.86,2.86,0,0,1,3.93,1L42,155.71Zm.48-18.65a1.1,1.1,0,0,0-.57.16l-5.69,3.46a1.11,1.11,0,0,0-.38,1.52L32,159.73l7.59-4.61L32.87,144A1.11,1.11,0,0,0,31.92,143.49Z"/><path class="cls-1" d="M38.62,185.38a7.89,7.89,0,0,1-4-14.68,7.9,7.9,0,1,1,4,14.68Zm0-14a6.15,6.15,0,1,0,6,7.66,6.13,6.13,0,0,0-.68-4.66h0A6.15,6.15,0,0,0,38.6,171.34Z"/><path class="cls-1" d="M27.3,229.07,38,232.25a.94.94,0,0,1,.62,1.15h0a.94.94,0,0,1-1.15.62l-10.65-3.19a.92.92,0,0,1-.62-1.15h0A.91.91,0,0,1,27.3,229.07Z"/><path class="cls-1" d="M38.47,232.14H50.18a.92.92,0,0,1,0,1.84H38.47Z"/><circle class="cls-1" cx="38.05" cy="233.06" r="2"/><ellipse class="cls-1" cx="38.61" cy="177.49" rx="7.09" ry="7.02"/><path class="cls-6" d="M35,182.78a1.21,1.21,0,0,1-.83-.34,6.81,6.81,0,0,1-.06-9.61,1.17,1.17,0,1,1,1.67,1.65,4.45,4.45,0,0,0,0,6.28,1.18,1.18,0,0,1-.82,2Z"/><text class="cls-26" transform="translate(111.43 109.17)">INORGANIC<tspan x="-3.74" y="27.57" xml:space="preserve"> CHEMIST</tspan><tspan class="cls-27" x="102.86" y="27.57">R</tspan><tspan class="cls-28" x="116.91" y="27.57">Y</tspan></text></svg>